<?xml version="1.0" encoding="utf-8" standalone="no"?>
<!DOCTYPE svg PUBLIC "-//W3C//DTD SVG 1.1//EN"
  "http://www.w3.org/Graphics/SVG/1.1/DTD/svg11.dtd">
<svg xmlns:xlink="http://www.w3.org/1999/xlink" width="280.512pt" height="295.630125pt" viewBox="0 0 280.512 295.630125" xmlns="http://www.w3.org/2000/svg" version="1.1">
 <metadata>
  <rdf:RDF xmlns:dc="http://purl.org/dc/elements/1.1/" xmlns:cc="http://creativecommons.org/ns#" xmlns:rdf="http://www.w3.org/1999/02/22-rdf-syntax-ns#">
   <cc:Work>
    <dc:type rdf:resource="http://purl.org/dc/dcmitype/StillImage"/>
    <dc:date>2024-11-20T19:28:06.056759</dc:date>
    <dc:format>image/svg+xml</dc:format>
    <dc:creator>
     <cc:Agent>
      <dc:title>Matplotlib v3.8.4, https://matplotlib.org/</dc:title>
     </cc:Agent>
    </dc:creator>
   </cc:Work>
  </rdf:RDF>
 </metadata>
 <defs>
  <style type="text/css">*{stroke-linejoin: round; stroke-linecap: butt}</style>
 </defs>
 <g id="figure_1">
  <g id="patch_1">
   <path d="M 0 295.630125 
L 280.512 295.630125 
L 280.512 0 
L 0 0 
z
" style="fill: #ffffff"/>
  </g>
  <g id="axes_1">
   <g id="patch_2">
    <path d="M 246.7008 155.374125 
C 246.7008 138.90912 242.880561 122.666461 235.541477 107.927593 
C 228.202392 93.188725 217.542678 80.35172 204.40332 70.429338 
C 191.263962 60.506957 175.999832 53.767185 159.815175 50.741749 
C 143.630518 47.716313 126.962453 48.486925 111.12599 52.992789 
C 95.289526 57.498653 80.712379 65.618072 68.544594 76.710476 
C 56.37681 87.802879 46.94702 101.568679 40.999176 116.92184 
C 35.051332 132.275 32.746075 148.800859 34.265276 165.195626 
C 35.784477 181.590394 41.087105 197.411277 49.754816 211.410105 
L 140.256 155.374125 
z
" style="fill: #1f77b4"/>
   </g>
   <g id="patch_3">
    <path d="M 49.754816 211.410105 
C 61.940425 231.090534 80.219285 246.269101 101.803719 254.630951 
C 123.388154 262.992802 147.122128 264.090086 169.38602 257.755458 
C 191.649911 251.420831 211.251293 237.993567 225.200796 219.521433 
C 239.150298 201.049299 246.700804 178.52164 246.7008 155.374105 
L 140.256 155.374125 
z
" style="fill: #ff7f0e"/>
   </g>
   <g id="matplotlib.axis_1"/>
   <g id="matplotlib.axis_2"/>
   <g id="text_1">
    <!-- Мастер студије -->
    <g transform="translate(26.867676 45.51403) scale(0.1 -0.1)">
     <defs>
      <path id="DejaVuSans-41c" d="M 628 4666 
L 1569 4666 
L 2759 1491 
L 3956 4666 
L 4897 4666 
L 4897 0 
L 4281 0 
L 4281 4097 
L 3078 897 
L 2444 897 
L 1241 4097 
L 1241 0 
L 628 0 
L 628 4666 
z
" transform="scale(0.015625)"/>
      <path id="DejaVuSans-430" d="M 2194 1759 
Q 1497 1759 1228 1600 
Q 959 1441 959 1056 
Q 959 750 1161 570 
Q 1363 391 1709 391 
Q 2188 391 2477 730 
Q 2766 1069 2766 1631 
L 2766 1759 
L 2194 1759 
z
M 3341 1997 
L 3341 0 
L 2766 0 
L 2766 531 
Q 2569 213 2275 61 
Q 1981 -91 1556 -91 
Q 1019 -91 701 211 
Q 384 513 384 1019 
Q 384 1609 779 1909 
Q 1175 2209 1959 2209 
L 2766 2209 
L 2766 2266 
Q 2766 2663 2505 2880 
Q 2244 3097 1772 3097 
Q 1472 3097 1187 3025 
Q 903 2953 641 2809 
L 641 3341 
Q 956 3463 1253 3523 
Q 1550 3584 1831 3584 
Q 2591 3584 2966 3190 
Q 3341 2797 3341 1997 
z
" transform="scale(0.015625)"/>
      <path id="DejaVuSans-441" d="M 3122 3366 
L 3122 2828 
Q 2878 2963 2633 3030 
Q 2388 3097 2138 3097 
Q 1578 3097 1268 2742 
Q 959 2388 959 1747 
Q 959 1106 1268 751 
Q 1578 397 2138 397 
Q 2388 397 2633 464 
Q 2878 531 3122 666 
L 3122 134 
Q 2881 22 2623 -34 
Q 2366 -91 2075 -91 
Q 1284 -91 818 406 
Q 353 903 353 1747 
Q 353 2603 823 3093 
Q 1294 3584 2113 3584 
Q 2378 3584 2631 3529 
Q 2884 3475 3122 3366 
z
" transform="scale(0.015625)"/>
      <path id="DejaVuSans-442" d="M 188 3500 
L 3541 3500 
L 3541 3041 
L 2147 3041 
L 2147 0 
L 1581 0 
L 1581 3041 
L 188 3041 
L 188 3500 
z
" transform="scale(0.015625)"/>
      <path id="DejaVuSans-435" d="M 3597 1894 
L 3597 1613 
L 953 1613 
Q 991 1019 1311 708 
Q 1631 397 2203 397 
Q 2534 397 2845 478 
Q 3156 559 3463 722 
L 3463 178 
Q 3153 47 2828 -22 
Q 2503 -91 2169 -91 
Q 1331 -91 842 396 
Q 353 884 353 1716 
Q 353 2575 817 3079 
Q 1281 3584 2069 3584 
Q 2775 3584 3186 3129 
Q 3597 2675 3597 1894 
z
M 3022 2063 
Q 3016 2534 2758 2815 
Q 2500 3097 2075 3097 
Q 1594 3097 1305 2825 
Q 1016 2553 972 2059 
L 3022 2063 
z
" transform="scale(0.015625)"/>
      <path id="DejaVuSans-440" d="M 1159 525 
L 1159 -1331 
L 581 -1331 
L 581 3500 
L 1159 3500 
L 1159 2969 
Q 1341 3281 1617 3432 
Q 1894 3584 2278 3584 
Q 2916 3584 3314 3078 
Q 3713 2572 3713 1747 
Q 3713 922 3314 415 
Q 2916 -91 2278 -91 
Q 1894 -91 1617 61 
Q 1341 213 1159 525 
z
M 3116 1747 
Q 3116 2381 2855 2742 
Q 2594 3103 2138 3103 
Q 1681 3103 1420 2742 
Q 1159 2381 1159 1747 
Q 1159 1113 1420 752 
Q 1681 391 2138 391 
Q 2594 391 2855 752 
Q 3116 1113 3116 1747 
z
" transform="scale(0.015625)"/>
      <path id="DejaVuSans-20" transform="scale(0.015625)"/>
      <path id="DejaVuSans-443" d="M 2059 -325 
Q 1816 -950 1584 -1140 
Q 1353 -1331 966 -1331 
L 506 -1331 
L 506 -850 
L 844 -850 
Q 1081 -850 1212 -737 
Q 1344 -625 1503 -206 
L 1606 56 
L 191 3500 
L 800 3500 
L 1894 763 
L 2988 3500 
L 3597 3500 
L 2059 -325 
z
" transform="scale(0.015625)"/>
      <path id="DejaVuSans-434" d="M 1384 459 
L 3053 459 
L 3053 3041 
L 1844 3041 
L 1844 2603 
Q 1844 1316 1475 628 
L 1384 459 
z
M 550 459 
Q 834 584 959 850 
Q 1266 1509 1266 2838 
L 1266 3500 
L 3631 3500 
L 3631 459 
L 4091 459 
L 4091 -884 
L 3631 -884 
L 3631 0 
L 794 0 
L 794 -884 
L 334 -884 
L 334 459 
L 550 459 
z
" transform="scale(0.015625)"/>
      <path id="DejaVuSans-438" d="M 3578 3500 
L 3578 0 
L 3006 0 
L 3006 2809 
L 1319 0 
L 581 0 
L 581 3500 
L 1153 3500 
L 1153 697 
L 2838 3500 
L 3578 3500 
z
" transform="scale(0.015625)"/>
      <path id="DejaVuSans-458" d="M 603 3500 
L 1178 3500 
L 1178 -63 
Q 1178 -731 923 -1031 
Q 669 -1331 103 -1331 
L -116 -1331 
L -116 -844 
L 38 -844 
Q 366 -844 484 -692 
Q 603 -541 603 -63 
L 603 3500 
z
M 603 4863 
L 1178 4863 
L 1178 4134 
L 603 4134 
L 603 4863 
z
" transform="scale(0.015625)"/>
     </defs>
     <use xlink:href="#DejaVuSans-41c"/>
     <use xlink:href="#DejaVuSans-430" x="86.279297"/>
     <use xlink:href="#DejaVuSans-441" x="147.558594"/>
     <use xlink:href="#DejaVuSans-442" x="202.539062"/>
     <use xlink:href="#DejaVuSans-435" x="260.791016"/>
     <use xlink:href="#DejaVuSans-440" x="322.314453"/>
     <use xlink:href="#DejaVuSans-20" x="385.791016"/>
     <use xlink:href="#DejaVuSans-441" x="417.578125"/>
     <use xlink:href="#DejaVuSans-442" x="472.558594"/>
     <use xlink:href="#DejaVuSans-443" x="530.810547"/>
     <use xlink:href="#DejaVuSans-434" x="589.990234"/>
     <use xlink:href="#DejaVuSans-438" x="659.130859"/>
     <use xlink:href="#DejaVuSans-458" x="724.121094"/>
     <use xlink:href="#DejaVuSans-435" x="751.904297"/>
    </g>
   </g>
   <g id="text_2">
    <!-- Основне студије -->
    <g transform="translate(172.299022 270.752967) scale(0.1 -0.1)">
     <defs>
      <path id="DejaVuSans-41e" d="M 2522 4238 
Q 1834 4238 1429 3725 
Q 1025 3213 1025 2328 
Q 1025 1447 1429 934 
Q 1834 422 2522 422 
Q 3209 422 3611 934 
Q 4013 1447 4013 2328 
Q 4013 3213 3611 3725 
Q 3209 4238 2522 4238 
z
M 2522 4750 
Q 3503 4750 4090 4092 
Q 4678 3434 4678 2328 
Q 4678 1225 4090 567 
Q 3503 -91 2522 -91 
Q 1538 -91 948 565 
Q 359 1222 359 2328 
Q 359 3434 948 4092 
Q 1538 4750 2522 4750 
z
" transform="scale(0.015625)"/>
      <path id="DejaVuSans-43d" d="M 581 3500 
L 1159 3500 
L 1159 2072 
L 3025 2072 
L 3025 3500 
L 3603 3500 
L 3603 0 
L 3025 0 
L 3025 1613 
L 1159 1613 
L 1159 0 
L 581 0 
L 581 3500 
z
" transform="scale(0.015625)"/>
      <path id="DejaVuSans-43e" d="M 1959 3097 
Q 1497 3097 1228 2736 
Q 959 2375 959 1747 
Q 959 1119 1226 758 
Q 1494 397 1959 397 
Q 2419 397 2687 759 
Q 2956 1122 2956 1747 
Q 2956 2369 2687 2733 
Q 2419 3097 1959 3097 
z
M 1959 3584 
Q 2709 3584 3137 3096 
Q 3566 2609 3566 1747 
Q 3566 888 3137 398 
Q 2709 -91 1959 -91 
Q 1206 -91 779 398 
Q 353 888 353 1747 
Q 353 2609 779 3096 
Q 1206 3584 1959 3584 
z
" transform="scale(0.015625)"/>
      <path id="DejaVuSans-432" d="M 1156 1613 
L 1156 459 
L 1975 459 
Q 2369 459 2575 607 
Q 2781 756 2781 1038 
Q 2781 1319 2575 1466 
Q 2369 1613 1975 1613 
L 1156 1613 
z
M 1156 3041 
L 1156 2072 
L 1913 2072 
Q 2238 2072 2444 2201 
Q 2650 2331 2650 2563 
Q 2650 2794 2444 2917 
Q 2238 3041 1913 3041 
L 1156 3041 
z
M 581 3500 
L 1950 3500 
Q 2566 3500 2897 3275 
Q 3228 3050 3228 2634 
Q 3228 2313 3059 2123 
Q 2891 1934 2559 1888 
Q 2956 1813 3175 1575 
Q 3394 1338 3394 981 
Q 3394 513 3033 256 
Q 2672 0 2003 0 
L 581 0 
L 581 3500 
z
" transform="scale(0.015625)"/>
     </defs>
     <use xlink:href="#DejaVuSans-41e"/>
     <use xlink:href="#DejaVuSans-441" x="78.710938"/>
     <use xlink:href="#DejaVuSans-43d" x="133.691406"/>
     <use xlink:href="#DejaVuSans-43e" x="199.072266"/>
     <use xlink:href="#DejaVuSans-432" x="260.253906"/>
     <use xlink:href="#DejaVuSans-43d" x="319.189453"/>
     <use xlink:href="#DejaVuSans-435" x="384.570312"/>
     <use xlink:href="#DejaVuSans-20" x="446.09375"/>
     <use xlink:href="#DejaVuSans-441" x="477.880859"/>
     <use xlink:href="#DejaVuSans-442" x="532.861328"/>
     <use xlink:href="#DejaVuSans-443" x="591.113281"/>
     <use xlink:href="#DejaVuSans-434" x="650.292969"/>
     <use xlink:href="#DejaVuSans-438" x="719.433594"/>
     <use xlink:href="#DejaVuSans-458" x="784.423828"/>
     <use xlink:href="#DejaVuSans-435" x="812.207031"/>
    </g>
   </g>
   <g id="text_3">
    <!-- Тип студијског програма -->
    <g transform="translate(60.904125 16.318125) scale(0.12 -0.12)">
     <defs>
      <path id="DejaVuSans-422" d="M -19 4666 
L 3928 4666 
L 3928 4134 
L 2272 4134 
L 2272 0 
L 1638 0 
L 1638 4134 
L -19 4134 
L -19 4666 
z
" transform="scale(0.015625)"/>
      <path id="DejaVuSans-43f" d="M 3603 3500 
L 3603 0 
L 3025 0 
L 3025 3041 
L 1159 3041 
L 1159 0 
L 581 0 
L 581 3500 
L 3603 3500 
z
" transform="scale(0.015625)"/>
      <path id="DejaVuSans-43a" d="M 581 3500 
L 1153 3500 
L 1153 1856 
L 2775 3500 
L 3481 3500 
L 2144 2147 
L 3653 0 
L 3009 0 
L 1769 1766 
L 1153 1141 
L 1153 0 
L 581 0 
L 581 3500 
z
" transform="scale(0.015625)"/>
      <path id="DejaVuSans-433" d="M 581 0 
L 581 3500 
L 3050 3500 
L 3050 3041 
L 1159 3041 
L 1159 0 
L 581 0 
z
" transform="scale(0.015625)"/>
      <path id="DejaVuSans-43c" d="M 581 3500 
L 1422 3500 
L 2416 1156 
L 3413 3500 
L 4247 3500 
L 4247 0 
L 3669 0 
L 3669 2950 
L 2703 672 
L 2128 672 
L 1159 2950 
L 1159 0 
L 581 0 
L 581 3500 
z
" transform="scale(0.015625)"/>
     </defs>
     <use xlink:href="#DejaVuSans-422"/>
     <use xlink:href="#DejaVuSans-438" x="61.083984"/>
     <use xlink:href="#DejaVuSans-43f" x="126.074219"/>
     <use xlink:href="#DejaVuSans-20" x="191.455078"/>
     <use xlink:href="#DejaVuSans-441" x="223.242188"/>
     <use xlink:href="#DejaVuSans-442" x="278.222656"/>
     <use xlink:href="#DejaVuSans-443" x="336.474609"/>
     <use xlink:href="#DejaVuSans-434" x="395.654297"/>
     <use xlink:href="#DejaVuSans-438" x="464.794922"/>
     <use xlink:href="#DejaVuSans-458" x="529.785156"/>
     <use xlink:href="#DejaVuSans-441" x="557.568359"/>
     <use xlink:href="#DejaVuSans-43a" x="612.548828"/>
     <use xlink:href="#DejaVuSans-43e" x="672.949219"/>
     <use xlink:href="#DejaVuSans-433" x="734.130859"/>
     <use xlink:href="#DejaVuSans-20" x="786.669922"/>
     <use xlink:href="#DejaVuSans-43f" x="818.457031"/>
     <use xlink:href="#DejaVuSans-440" x="883.837891"/>
     <use xlink:href="#DejaVuSans-43e" x="947.314453"/>
     <use xlink:href="#DejaVuSans-433" x="1008.496094"/>
     <use xlink:href="#DejaVuSans-440" x="1061.035156"/>
     <use xlink:href="#DejaVuSans-430" x="1124.511719"/>
     <use xlink:href="#DejaVuSans-43c" x="1185.791016"/>
     <use xlink:href="#DejaVuSans-430" x="1261.230469"/>
    </g>
   </g>
  </g>
 </g>
</svg>
