<?xml version="1.0" encoding="utf-8" standalone="no"?>
<!DOCTYPE svg PUBLIC "-//W3C//DTD SVG 1.1//EN"
  "http://www.w3.org/Graphics/SVG/1.1/DTD/svg11.dtd">
<svg xmlns:xlink="http://www.w3.org/1999/xlink" width="676.17375pt" height="295.8345pt" viewBox="0 0 676.17375 295.8345" xmlns="http://www.w3.org/2000/svg" version="1.1">
 <metadata>
  <rdf:RDF xmlns:dc="http://purl.org/dc/elements/1.1/" xmlns:cc="http://creativecommons.org/ns#" xmlns:rdf="http://www.w3.org/1999/02/22-rdf-syntax-ns#">
   <cc:Work>
    <dc:type rdf:resource="http://purl.org/dc/dcmitype/StillImage"/>
    <dc:date>2024-11-20T19:30:34.004254</dc:date>
    <dc:format>image/svg+xml</dc:format>
    <dc:creator>
     <cc:Agent>
      <dc:title>Matplotlib v3.8.4, https://matplotlib.org/</dc:title>
     </cc:Agent>
    </dc:creator>
   </cc:Work>
  </rdf:RDF>
 </metadata>
 <defs>
  <style type="text/css">*{stroke-linejoin: round; stroke-linecap: butt}</style>
 </defs>
 <g id="figure_1">
  <g id="patch_1">
   <path d="M 0 295.8345 
L 676.17375 295.8345 
L 676.17375 0 
L 0 0 
z
" style="fill: #ffffff"/>
  </g>
  <g id="axes_1">
   <g id="patch_2">
    <path d="M 338.086875 49.1337 
C 325.486566 49.1337 312.985768 51.371026 301.167628 55.741309 
C 289.349489 60.111592 278.400677 66.545804 268.83194 74.743796 
C 259.263203 82.941788 251.225681 92.774072 245.094314 103.781984 
C 238.962947 114.789897 234.834581 126.799566 232.901799 139.250757 
C 230.969017 151.701948 231.262347 164.397991 233.768106 176.746634 
C 236.273865 189.095276 240.952474 200.901469 247.585683 211.614468 
C 254.218891 222.327466 262.701926 231.778058 272.639064 239.525385 
C 282.576203 247.272712 293.810487 253.194404 305.817851 257.014221 
C 317.825215 260.834039 330.416002 262.491647 343.002866 261.909721 
C 355.589731 261.327794 367.973862 258.515526 379.577557 253.604103 
C 391.181251 248.69268 401.821226 241.75968 411.001141 233.128518 
C 420.181056 224.497355 427.755913 214.304362 433.372354 203.025028 
C 438.988795 191.745693 442.558107 179.558176 443.913788 167.031008 
C 445.269469 154.50384 444.390104 141.834891 441.316715 129.61515 
C 438.243326 117.395408 433.024458 105.817888 425.903564 95.422664 
C 418.78267 85.027441 409.872226 75.978709 399.587892 68.698581 
L 338.086875 155.5785 
z
" style="fill: #1f77b4"/>
   </g>
   <g id="patch_3">
    <path d="M 399.587892 68.698581 
C 390.65065 62.372038 380.790478 57.462257 370.355897 54.142778 
C 359.921315 50.823299 349.03673 49.133699 338.08687 49.1337 
L 338.086875 155.5785 
z
" style="fill: #ff7f0e"/>
   </g>
   <g id="matplotlib.axis_1"/>
   <g id="matplotlib.axis_2"/>
   <g id="text_1">
    <!-- Да -->
    <g transform="translate(288.650324 269.917168) scale(0.1 -0.1)">
     <defs>
      <path id="DejaVuSans-414" d="M 1459 531 
L 3522 531 
L 3522 4134 
L 2006 4134 
L 2006 3472 
Q 2006 1913 1656 878 
Q 1584 666 1459 531 
z
M 538 531 
Q 956 728 1075 1103 
Q 1378 2066 1378 3784 
L 1378 4666 
L 4153 4666 
L 4153 531 
L 4684 531 
L 4684 -1003 
L 4153 -1003 
L 4153 0 
L 847 0 
L 847 -1003 
L 316 -1003 
L 316 531 
L 538 531 
z
" transform="scale(0.015625)"/>
      <path id="DejaVuSans-430" d="M 2194 1759 
Q 1497 1759 1228 1600 
Q 959 1441 959 1056 
Q 959 750 1161 570 
Q 1363 391 1709 391 
Q 2188 391 2477 730 
Q 2766 1069 2766 1631 
L 2766 1759 
L 2194 1759 
z
M 3341 1997 
L 3341 0 
L 2766 0 
L 2766 531 
Q 2569 213 2275 61 
Q 1981 -91 1556 -91 
Q 1019 -91 701 211 
Q 384 513 384 1019 
Q 384 1609 779 1909 
Q 1175 2209 1959 2209 
L 2766 2209 
L 2766 2266 
Q 2766 2663 2505 2880 
Q 2244 3097 1772 3097 
Q 1472 3097 1187 3025 
Q 903 2953 641 2809 
L 641 3341 
Q 956 3463 1253 3523 
Q 1550 3584 1831 3584 
Q 2591 3584 2966 3190 
Q 3341 2797 3341 1997 
z
" transform="scale(0.015625)"/>
     </defs>
     <use xlink:href="#DejaVuSans-414"/>
     <use xlink:href="#DejaVuSans-430" x="78.125"/>
    </g>
   </g>
   <g id="text_2">
    <!-- 90.2% -->
    <g transform="translate(302.841867 219.199308) scale(0.1 -0.1)">
     <defs>
      <path id="DejaVuSans-39" d="M 703 97 
L 703 672 
Q 941 559 1184 500 
Q 1428 441 1663 441 
Q 2288 441 2617 861 
Q 2947 1281 2994 2138 
Q 2813 1869 2534 1725 
Q 2256 1581 1919 1581 
Q 1219 1581 811 2004 
Q 403 2428 403 3163 
Q 403 3881 828 4315 
Q 1253 4750 1959 4750 
Q 2769 4750 3195 4129 
Q 3622 3509 3622 2328 
Q 3622 1225 3098 567 
Q 2575 -91 1691 -91 
Q 1453 -91 1209 -44 
Q 966 3 703 97 
z
M 1959 2075 
Q 2384 2075 2632 2365 
Q 2881 2656 2881 3163 
Q 2881 3666 2632 3958 
Q 2384 4250 1959 4250 
Q 1534 4250 1286 3958 
Q 1038 3666 1038 3163 
Q 1038 2656 1286 2365 
Q 1534 2075 1959 2075 
z
" transform="scale(0.015625)"/>
      <path id="DejaVuSans-30" d="M 2034 4250 
Q 1547 4250 1301 3770 
Q 1056 3291 1056 2328 
Q 1056 1369 1301 889 
Q 1547 409 2034 409 
Q 2525 409 2770 889 
Q 3016 1369 3016 2328 
Q 3016 3291 2770 3770 
Q 2525 4250 2034 4250 
z
M 2034 4750 
Q 2819 4750 3233 4129 
Q 3647 3509 3647 2328 
Q 3647 1150 3233 529 
Q 2819 -91 2034 -91 
Q 1250 -91 836 529 
Q 422 1150 422 2328 
Q 422 3509 836 4129 
Q 1250 4750 2034 4750 
z
" transform="scale(0.015625)"/>
      <path id="DejaVuSans-2e" d="M 684 794 
L 1344 794 
L 1344 0 
L 684 0 
L 684 794 
z
" transform="scale(0.015625)"/>
      <path id="DejaVuSans-32" d="M 1228 531 
L 3431 531 
L 3431 0 
L 469 0 
L 469 531 
Q 828 903 1448 1529 
Q 2069 2156 2228 2338 
Q 2531 2678 2651 2914 
Q 2772 3150 2772 3378 
Q 2772 3750 2511 3984 
Q 2250 4219 1831 4219 
Q 1534 4219 1204 4116 
Q 875 4013 500 3803 
L 500 4441 
Q 881 4594 1212 4672 
Q 1544 4750 1819 4750 
Q 2544 4750 2975 4387 
Q 3406 4025 3406 3419 
Q 3406 3131 3298 2873 
Q 3191 2616 2906 2266 
Q 2828 2175 2409 1742 
Q 1991 1309 1228 531 
z
" transform="scale(0.015625)"/>
      <path id="DejaVuSans-25" d="M 4653 2053 
Q 4381 2053 4226 1822 
Q 4072 1591 4072 1178 
Q 4072 772 4226 539 
Q 4381 306 4653 306 
Q 4919 306 5073 539 
Q 5228 772 5228 1178 
Q 5228 1588 5073 1820 
Q 4919 2053 4653 2053 
z
M 4653 2450 
Q 5147 2450 5437 2106 
Q 5728 1763 5728 1178 
Q 5728 594 5436 251 
Q 5144 -91 4653 -91 
Q 4153 -91 3862 251 
Q 3572 594 3572 1178 
Q 3572 1766 3864 2108 
Q 4156 2450 4653 2450 
z
M 1428 4353 
Q 1159 4353 1004 4120 
Q 850 3888 850 3481 
Q 850 3069 1003 2837 
Q 1156 2606 1428 2606 
Q 1700 2606 1854 2837 
Q 2009 3069 2009 3481 
Q 2009 3884 1853 4118 
Q 1697 4353 1428 4353 
z
M 4250 4750 
L 4750 4750 
L 1831 -91 
L 1331 -91 
L 4250 4750 
z
M 1428 4750 
Q 1922 4750 2215 4408 
Q 2509 4066 2509 3481 
Q 2509 2891 2217 2550 
Q 1925 2209 1428 2209 
Q 931 2209 642 2551 
Q 353 2894 353 3481 
Q 353 4063 643 4406 
Q 934 4750 1428 4750 
z
" transform="scale(0.015625)"/>
     </defs>
     <use xlink:href="#DejaVuSans-39"/>
     <use xlink:href="#DejaVuSans-30" x="63.623047"/>
     <use xlink:href="#DejaVuSans-2e" x="127.246094"/>
     <use xlink:href="#DejaVuSans-32" x="159.033203"/>
     <use xlink:href="#DejaVuSans-25" x="222.65625"/>
    </g>
   </g>
   <g id="text_3">
    <!-- Не -->
    <g transform="translate(373.582799 46.758581) scale(0.1 -0.1)">
     <defs>
      <path id="DejaVuSans-41d" d="M 628 4666 
L 1259 4666 
L 1259 2753 
L 3553 2753 
L 3553 4666 
L 4184 4666 
L 4184 0 
L 3553 0 
L 3553 2222 
L 1259 2222 
L 1259 0 
L 628 0 
L 628 4666 
z
" transform="scale(0.015625)"/>
      <path id="DejaVuSans-435" d="M 3597 1894 
L 3597 1613 
L 953 1613 
Q 991 1019 1311 708 
Q 1631 397 2203 397 
Q 2534 397 2845 478 
Q 3156 559 3463 722 
L 3463 178 
Q 3153 47 2828 -22 
Q 2503 -91 2169 -91 
Q 1331 -91 842 396 
Q 353 884 353 1716 
Q 353 2575 817 3079 
Q 1281 3584 2069 3584 
Q 2775 3584 3186 3129 
Q 3597 2675 3597 1894 
z
M 3022 2063 
Q 3016 2534 2758 2815 
Q 2500 3097 2075 3097 
Q 1594 3097 1305 2825 
Q 1016 2553 972 2059 
L 3022 2063 
z
" transform="scale(0.015625)"/>
     </defs>
     <use xlink:href="#DejaVuSans-41d"/>
     <use xlink:href="#DejaVuSans-435" x="75.195312"/>
    </g>
   </g>
   <g id="text_4">
    <!-- 9.8% -->
    <g transform="translate(344.745944 97.476442) scale(0.1 -0.1)">
     <defs>
      <path id="DejaVuSans-38" d="M 2034 2216 
Q 1584 2216 1326 1975 
Q 1069 1734 1069 1313 
Q 1069 891 1326 650 
Q 1584 409 2034 409 
Q 2484 409 2743 651 
Q 3003 894 3003 1313 
Q 3003 1734 2745 1975 
Q 2488 2216 2034 2216 
z
M 1403 2484 
Q 997 2584 770 2862 
Q 544 3141 544 3541 
Q 544 4100 942 4425 
Q 1341 4750 2034 4750 
Q 2731 4750 3128 4425 
Q 3525 4100 3525 3541 
Q 3525 3141 3298 2862 
Q 3072 2584 2669 2484 
Q 3125 2378 3379 2068 
Q 3634 1759 3634 1313 
Q 3634 634 3220 271 
Q 2806 -91 2034 -91 
Q 1263 -91 848 271 
Q 434 634 434 1313 
Q 434 1759 690 2068 
Q 947 2378 1403 2484 
z
M 1172 3481 
Q 1172 3119 1398 2916 
Q 1625 2713 2034 2713 
Q 2441 2713 2670 2916 
Q 2900 3119 2900 3481 
Q 2900 3844 2670 4047 
Q 2441 4250 2034 4250 
Q 1625 4250 1398 4047 
Q 1172 3844 1172 3481 
z
" transform="scale(0.015625)"/>
     </defs>
     <use xlink:href="#DejaVuSans-39"/>
     <use xlink:href="#DejaVuSans-2e" x="63.623047"/>
     <use xlink:href="#DejaVuSans-38" x="95.410156"/>
     <use xlink:href="#DejaVuSans-25" x="159.033203"/>
    </g>
   </g>
   <g id="text_5">
    <!-- Да ли сте присуствовали неком предавању на Математичком факултету које бисте оценили као лоше? -->
    <g transform="translate(7.2 16.5225) scale(0.12 -0.12)">
     <defs>
      <path id="DejaVuSans-20" transform="scale(0.015625)"/>
      <path id="DejaVuSans-43b" d="M 238 0 
L 238 478 
Q 806 566 981 959 
Q 1194 1513 1194 2928 
L 1194 3500 
L 3559 3500 
L 3559 0 
L 2984 0 
L 2984 3041 
L 1769 3041 
L 1769 2694 
Q 1769 1344 1494 738 
Q 1200 91 238 0 
z
" transform="scale(0.015625)"/>
      <path id="DejaVuSans-438" d="M 3578 3500 
L 3578 0 
L 3006 0 
L 3006 2809 
L 1319 0 
L 581 0 
L 581 3500 
L 1153 3500 
L 1153 697 
L 2838 3500 
L 3578 3500 
z
" transform="scale(0.015625)"/>
      <path id="DejaVuSans-441" d="M 3122 3366 
L 3122 2828 
Q 2878 2963 2633 3030 
Q 2388 3097 2138 3097 
Q 1578 3097 1268 2742 
Q 959 2388 959 1747 
Q 959 1106 1268 751 
Q 1578 397 2138 397 
Q 2388 397 2633 464 
Q 2878 531 3122 666 
L 3122 134 
Q 2881 22 2623 -34 
Q 2366 -91 2075 -91 
Q 1284 -91 818 406 
Q 353 903 353 1747 
Q 353 2603 823 3093 
Q 1294 3584 2113 3584 
Q 2378 3584 2631 3529 
Q 2884 3475 3122 3366 
z
" transform="scale(0.015625)"/>
      <path id="DejaVuSans-442" d="M 188 3500 
L 3541 3500 
L 3541 3041 
L 2147 3041 
L 2147 0 
L 1581 0 
L 1581 3041 
L 188 3041 
L 188 3500 
z
" transform="scale(0.015625)"/>
      <path id="DejaVuSans-43f" d="M 3603 3500 
L 3603 0 
L 3025 0 
L 3025 3041 
L 1159 3041 
L 1159 0 
L 581 0 
L 581 3500 
L 3603 3500 
z
" transform="scale(0.015625)"/>
      <path id="DejaVuSans-440" d="M 1159 525 
L 1159 -1331 
L 581 -1331 
L 581 3500 
L 1159 3500 
L 1159 2969 
Q 1341 3281 1617 3432 
Q 1894 3584 2278 3584 
Q 2916 3584 3314 3078 
Q 3713 2572 3713 1747 
Q 3713 922 3314 415 
Q 2916 -91 2278 -91 
Q 1894 -91 1617 61 
Q 1341 213 1159 525 
z
M 3116 1747 
Q 3116 2381 2855 2742 
Q 2594 3103 2138 3103 
Q 1681 3103 1420 2742 
Q 1159 2381 1159 1747 
Q 1159 1113 1420 752 
Q 1681 391 2138 391 
Q 2594 391 2855 752 
Q 3116 1113 3116 1747 
z
" transform="scale(0.015625)"/>
      <path id="DejaVuSans-443" d="M 2059 -325 
Q 1816 -950 1584 -1140 
Q 1353 -1331 966 -1331 
L 506 -1331 
L 506 -850 
L 844 -850 
Q 1081 -850 1212 -737 
Q 1344 -625 1503 -206 
L 1606 56 
L 191 3500 
L 800 3500 
L 1894 763 
L 2988 3500 
L 3597 3500 
L 2059 -325 
z
" transform="scale(0.015625)"/>
      <path id="DejaVuSans-432" d="M 1156 1613 
L 1156 459 
L 1975 459 
Q 2369 459 2575 607 
Q 2781 756 2781 1038 
Q 2781 1319 2575 1466 
Q 2369 1613 1975 1613 
L 1156 1613 
z
M 1156 3041 
L 1156 2072 
L 1913 2072 
Q 2238 2072 2444 2201 
Q 2650 2331 2650 2563 
Q 2650 2794 2444 2917 
Q 2238 3041 1913 3041 
L 1156 3041 
z
M 581 3500 
L 1950 3500 
Q 2566 3500 2897 3275 
Q 3228 3050 3228 2634 
Q 3228 2313 3059 2123 
Q 2891 1934 2559 1888 
Q 2956 1813 3175 1575 
Q 3394 1338 3394 981 
Q 3394 513 3033 256 
Q 2672 0 2003 0 
L 581 0 
L 581 3500 
z
" transform="scale(0.015625)"/>
      <path id="DejaVuSans-43e" d="M 1959 3097 
Q 1497 3097 1228 2736 
Q 959 2375 959 1747 
Q 959 1119 1226 758 
Q 1494 397 1959 397 
Q 2419 397 2687 759 
Q 2956 1122 2956 1747 
Q 2956 2369 2687 2733 
Q 2419 3097 1959 3097 
z
M 1959 3584 
Q 2709 3584 3137 3096 
Q 3566 2609 3566 1747 
Q 3566 888 3137 398 
Q 2709 -91 1959 -91 
Q 1206 -91 779 398 
Q 353 888 353 1747 
Q 353 2609 779 3096 
Q 1206 3584 1959 3584 
z
" transform="scale(0.015625)"/>
      <path id="DejaVuSans-43d" d="M 581 3500 
L 1159 3500 
L 1159 2072 
L 3025 2072 
L 3025 3500 
L 3603 3500 
L 3603 0 
L 3025 0 
L 3025 1613 
L 1159 1613 
L 1159 0 
L 581 0 
L 581 3500 
z
" transform="scale(0.015625)"/>
      <path id="DejaVuSans-43a" d="M 581 3500 
L 1153 3500 
L 1153 1856 
L 2775 3500 
L 3481 3500 
L 2144 2147 
L 3653 0 
L 3009 0 
L 1769 1766 
L 1153 1141 
L 1153 0 
L 581 0 
L 581 3500 
z
" transform="scale(0.015625)"/>
      <path id="DejaVuSans-43c" d="M 581 3500 
L 1422 3500 
L 2416 1156 
L 3413 3500 
L 4247 3500 
L 4247 0 
L 3669 0 
L 3669 2950 
L 2703 672 
L 2128 672 
L 1159 2950 
L 1159 0 
L 581 0 
L 581 3500 
z
" transform="scale(0.015625)"/>
      <path id="DejaVuSans-434" d="M 1384 459 
L 3053 459 
L 3053 3041 
L 1844 3041 
L 1844 2603 
Q 1844 1316 1475 628 
L 1384 459 
z
M 550 459 
Q 834 584 959 850 
Q 1266 1509 1266 2838 
L 1266 3500 
L 3631 3500 
L 3631 459 
L 4091 459 
L 4091 -884 
L 3631 -884 
L 3631 0 
L 794 0 
L 794 -884 
L 334 -884 
L 334 459 
L 550 459 
z
" transform="scale(0.015625)"/>
      <path id="DejaVuSans-45a" d="M 3444 3500 
L 3444 2072 
L 3978 2072 
Q 4647 2072 5009 1817 
Q 5372 1563 5372 1038 
Q 5372 513 5011 256 
Q 4650 0 3981 0 
L 2866 0 
L 2866 1613 
L 1159 1613 
L 1159 0 
L 581 0 
L 581 3500 
L 1159 3500 
L 1159 2072 
L 2866 2072 
L 2866 3500 
L 3444 3500 
z
M 3953 459 
Q 4347 459 4553 607 
Q 4759 756 4759 1038 
Q 4759 1319 4553 1466 
Q 4347 1613 3953 1613 
L 3444 1613 
L 3444 459 
L 3953 459 
z
" transform="scale(0.015625)"/>
      <path id="DejaVuSans-41c" d="M 628 4666 
L 1569 4666 
L 2759 1491 
L 3956 4666 
L 4897 4666 
L 4897 0 
L 4281 0 
L 4281 4097 
L 3078 897 
L 2444 897 
L 1241 4097 
L 1241 0 
L 628 0 
L 628 4666 
z
" transform="scale(0.015625)"/>
      <path id="DejaVuSans-447" d="M 2625 0 
L 2625 1472 
L 1553 1472 
Q 1075 1472 756 1769 
Q 469 2038 469 2613 
L 469 3500 
L 1044 3500 
L 1044 2666 
Q 1044 2300 1206 2116 
Q 1372 1931 1697 1931 
L 2625 1931 
L 2625 3500 
L 3200 3500 
L 3200 0 
L 2625 0 
z
" transform="scale(0.015625)"/>
      <path id="DejaVuSans-444" d="M 947 1747 
Q 947 1013 1173 702 
Q 1400 391 1784 391 
Q 2091 391 2447 916 
L 2447 2578 
Q 2091 3103 1784 3103 
Q 1400 3103 1173 2792 
Q 947 2481 947 1747 
z
M 2447 -1331 
L 2447 447 
Q 2269 153 2064 31 
Q 1859 -91 1600 -91 
Q 1078 -91 714 392 
Q 350 875 350 1734 
Q 350 2594 714 3089 
Q 1078 3584 1600 3584 
Q 1859 3584 2064 3465 
Q 2269 3347 2447 3053 
L 2447 4666 
L 3025 4666 
L 3025 3053 
Q 3203 3347 3408 3465 
Q 3613 3584 3872 3584 
Q 4394 3584 4758 3089 
Q 5122 2594 5122 1734 
Q 5122 875 4758 392 
Q 4394 -91 3872 -91 
Q 3613 -91 3408 31 
Q 3203 153 3025 447 
L 3025 -1331 
L 2447 -1331 
z
M 4525 1747 
Q 4525 2481 4298 2792 
Q 4072 3103 3688 3103 
Q 3381 3103 3025 2578 
L 3025 916 
Q 3381 391 3688 391 
Q 4072 391 4298 702 
Q 4525 1013 4525 1747 
z
" transform="scale(0.015625)"/>
      <path id="DejaVuSans-458" d="M 603 3500 
L 1178 3500 
L 1178 -63 
Q 1178 -731 923 -1031 
Q 669 -1331 103 -1331 
L -116 -1331 
L -116 -844 
L 38 -844 
Q 366 -844 484 -692 
Q 603 -541 603 -63 
L 603 3500 
z
M 603 4863 
L 1178 4863 
L 1178 4134 
L 603 4134 
L 603 4863 
z
" transform="scale(0.015625)"/>
      <path id="DejaVuSans-431" d="M 1991 3584 
Q 2741 3584 3169 3096 
Q 3597 2609 3597 1747 
Q 3597 888 3169 398 
Q 2741 -91 1991 -91 
Q 1238 -91 822 384 
Q 406 859 384 1747 
L 366 2463 
Q 350 2834 350 2963 
Q 350 3463 531 3831 
Q 816 4409 1308 4659 
Q 1800 4909 2625 4916 
Q 3006 4919 3175 4972 
L 3334 4516 
Q 3181 4453 3041 4450 
L 2259 4397 
Q 1866 4369 1628 4231 
Q 1006 3866 947 3388 
L 925 3213 
Q 1331 3584 1991 3584 
z
M 1991 3097 
Q 1528 3097 1259 2736 
Q 991 2375 991 1747 
Q 991 1119 1258 758 
Q 1525 397 1991 397 
Q 2450 397 2719 759 
Q 2988 1122 2988 1747 
Q 2988 2369 2719 2733 
Q 2450 3097 1991 3097 
z
" transform="scale(0.015625)"/>
      <path id="DejaVuSans-446" d="M 3603 0 
L 581 0 
L 581 3500 
L 1159 3500 
L 1159 459 
L 3025 459 
L 3025 3500 
L 3603 3500 
L 3603 459 
L 4063 459 
L 4063 -884 
L 3603 -884 
L 3603 0 
z
" transform="scale(0.015625)"/>
      <path id="DejaVuSans-448" d="M 3216 459 
L 4697 459 
L 4697 3500 
L 5275 3500 
L 5275 0 
L 581 0 
L 581 3500 
L 1159 3500 
L 1159 459 
L 2638 459 
L 2638 3500 
L 3216 3500 
L 3216 459 
z
" transform="scale(0.015625)"/>
      <path id="DejaVuSans-3f" d="M 1222 794 
L 1856 794 
L 1856 0 
L 1222 0 
L 1222 794 
z
M 1838 1253 
L 1241 1253 
L 1241 1734 
Q 1241 2050 1328 2253 
Q 1416 2456 1697 2725 
L 1978 3003 
Q 2156 3169 2236 3316 
Q 2316 3463 2316 3616 
Q 2316 3894 2111 4066 
Q 1906 4238 1569 4238 
Q 1322 4238 1042 4128 
Q 763 4019 459 3809 
L 459 4397 
Q 753 4575 1054 4662 
Q 1356 4750 1678 4750 
Q 2253 4750 2601 4447 
Q 2950 4144 2950 3647 
Q 2950 3409 2837 3195 
Q 2725 2981 2444 2713 
L 2169 2444 
Q 2022 2297 1961 2214 
Q 1900 2131 1875 2053 
Q 1856 1988 1847 1894 
Q 1838 1800 1838 1638 
L 1838 1253 
z
" transform="scale(0.015625)"/>
     </defs>
     <use xlink:href="#DejaVuSans-414"/>
     <use xlink:href="#DejaVuSans-430" x="78.125"/>
     <use xlink:href="#DejaVuSans-20" x="139.404297"/>
     <use xlink:href="#DejaVuSans-43b" x="171.191406"/>
     <use xlink:href="#DejaVuSans-438" x="235.107422"/>
     <use xlink:href="#DejaVuSans-20" x="300.097656"/>
     <use xlink:href="#DejaVuSans-441" x="331.884766"/>
     <use xlink:href="#DejaVuSans-442" x="386.865234"/>
     <use xlink:href="#DejaVuSans-435" x="445.117188"/>
     <use xlink:href="#DejaVuSans-20" x="506.640625"/>
     <use xlink:href="#DejaVuSans-43f" x="538.427734"/>
     <use xlink:href="#DejaVuSans-440" x="603.808594"/>
     <use xlink:href="#DejaVuSans-438" x="667.285156"/>
     <use xlink:href="#DejaVuSans-441" x="732.275391"/>
     <use xlink:href="#DejaVuSans-443" x="787.255859"/>
     <use xlink:href="#DejaVuSans-441" x="846.435547"/>
     <use xlink:href="#DejaVuSans-442" x="901.416016"/>
     <use xlink:href="#DejaVuSans-432" x="959.667969"/>
     <use xlink:href="#DejaVuSans-43e" x="1018.603516"/>
     <use xlink:href="#DejaVuSans-432" x="1079.785156"/>
     <use xlink:href="#DejaVuSans-430" x="1138.720703"/>
     <use xlink:href="#DejaVuSans-43b" x="1200"/>
     <use xlink:href="#DejaVuSans-438" x="1263.916016"/>
     <use xlink:href="#DejaVuSans-20" x="1328.90625"/>
     <use xlink:href="#DejaVuSans-43d" x="1360.693359"/>
     <use xlink:href="#DejaVuSans-435" x="1426.074219"/>
     <use xlink:href="#DejaVuSans-43a" x="1487.597656"/>
     <use xlink:href="#DejaVuSans-43e" x="1547.998047"/>
     <use xlink:href="#DejaVuSans-43c" x="1609.179688"/>
     <use xlink:href="#DejaVuSans-20" x="1684.619141"/>
     <use xlink:href="#DejaVuSans-43f" x="1716.40625"/>
     <use xlink:href="#DejaVuSans-440" x="1781.787109"/>
     <use xlink:href="#DejaVuSans-435" x="1845.263672"/>
     <use xlink:href="#DejaVuSans-434" x="1906.787109"/>
     <use xlink:href="#DejaVuSans-430" x="1975.927734"/>
     <use xlink:href="#DejaVuSans-432" x="2037.207031"/>
     <use xlink:href="#DejaVuSans-430" x="2096.142578"/>
     <use xlink:href="#DejaVuSans-45a" x="2157.421875"/>
     <use xlink:href="#DejaVuSans-443" x="2247.265625"/>
     <use xlink:href="#DejaVuSans-20" x="2306.445312"/>
     <use xlink:href="#DejaVuSans-43d" x="2338.232422"/>
     <use xlink:href="#DejaVuSans-430" x="2403.613281"/>
     <use xlink:href="#DejaVuSans-20" x="2464.892578"/>
     <use xlink:href="#DejaVuSans-41c" x="2496.679688"/>
     <use xlink:href="#DejaVuSans-430" x="2582.958984"/>
     <use xlink:href="#DejaVuSans-442" x="2644.238281"/>
     <use xlink:href="#DejaVuSans-435" x="2702.490234"/>
     <use xlink:href="#DejaVuSans-43c" x="2764.013672"/>
     <use xlink:href="#DejaVuSans-430" x="2839.453125"/>
     <use xlink:href="#DejaVuSans-442" x="2900.732422"/>
     <use xlink:href="#DejaVuSans-438" x="2958.984375"/>
     <use xlink:href="#DejaVuSans-447" x="3023.974609"/>
     <use xlink:href="#DejaVuSans-43a" x="3083.056641"/>
     <use xlink:href="#DejaVuSans-43e" x="3143.457031"/>
     <use xlink:href="#DejaVuSans-43c" x="3204.638672"/>
     <use xlink:href="#DejaVuSans-20" x="3280.078125"/>
     <use xlink:href="#DejaVuSans-444" x="3311.865234"/>
     <use xlink:href="#DejaVuSans-430" x="3397.363281"/>
     <use xlink:href="#DejaVuSans-43a" x="3458.642578"/>
     <use xlink:href="#DejaVuSans-443" x="3519.042969"/>
     <use xlink:href="#DejaVuSans-43b" x="3578.222656"/>
     <use xlink:href="#DejaVuSans-442" x="3642.138672"/>
     <use xlink:href="#DejaVuSans-435" x="3700.390625"/>
     <use xlink:href="#DejaVuSans-442" x="3761.914062"/>
     <use xlink:href="#DejaVuSans-443" x="3820.166016"/>
     <use xlink:href="#DejaVuSans-20" x="3879.345703"/>
     <use xlink:href="#DejaVuSans-43a" x="3911.132812"/>
     <use xlink:href="#DejaVuSans-43e" x="3971.533203"/>
     <use xlink:href="#DejaVuSans-458" x="4032.714844"/>
     <use xlink:href="#DejaVuSans-435" x="4060.498047"/>
     <use xlink:href="#DejaVuSans-20" x="4122.021484"/>
     <use xlink:href="#DejaVuSans-431" x="4153.808594"/>
     <use xlink:href="#DejaVuSans-438" x="4215.478516"/>
     <use xlink:href="#DejaVuSans-441" x="4280.46875"/>
     <use xlink:href="#DejaVuSans-442" x="4335.449219"/>
     <use xlink:href="#DejaVuSans-435" x="4393.701172"/>
     <use xlink:href="#DejaVuSans-20" x="4455.224609"/>
     <use xlink:href="#DejaVuSans-43e" x="4487.011719"/>
     <use xlink:href="#DejaVuSans-446" x="4548.193359"/>
     <use xlink:href="#DejaVuSans-435" x="4616.259766"/>
     <use xlink:href="#DejaVuSans-43d" x="4677.783203"/>
     <use xlink:href="#DejaVuSans-438" x="4743.164062"/>
     <use xlink:href="#DejaVuSans-43b" x="4808.154297"/>
     <use xlink:href="#DejaVuSans-438" x="4872.070312"/>
     <use xlink:href="#DejaVuSans-20" x="4937.060547"/>
     <use xlink:href="#DejaVuSans-43a" x="4968.847656"/>
     <use xlink:href="#DejaVuSans-430" x="5029.248047"/>
     <use xlink:href="#DejaVuSans-43e" x="5090.527344"/>
     <use xlink:href="#DejaVuSans-20" x="5151.708984"/>
     <use xlink:href="#DejaVuSans-43b" x="5183.496094"/>
     <use xlink:href="#DejaVuSans-43e" x="5247.412109"/>
     <use xlink:href="#DejaVuSans-448" x="5308.59375"/>
     <use xlink:href="#DejaVuSans-435" x="5400.097656"/>
     <use xlink:href="#DejaVuSans-3f" x="5461.621094"/>
    </g>
   </g>
  </g>
 </g>
</svg>
