<?xml version="1.0" encoding="utf-8" standalone="no"?>
<!DOCTYPE svg PUBLIC "-//W3C//DTD SVG 1.1//EN"
  "http://www.w3.org/Graphics/SVG/1.1/DTD/svg11.dtd">
<svg xmlns:xlink="http://www.w3.org/1999/xlink" width="367.953856pt" height="295.630125pt" viewBox="0 0 367.953856 295.630125" xmlns="http://www.w3.org/2000/svg" version="1.1">
 <metadata>
  <rdf:RDF xmlns:dc="http://purl.org/dc/elements/1.1/" xmlns:cc="http://creativecommons.org/ns#" xmlns:rdf="http://www.w3.org/1999/02/22-rdf-syntax-ns#">
   <cc:Work>
    <dc:type rdf:resource="http://purl.org/dc/dcmitype/StillImage"/>
    <dc:date>2024-11-20T19:30:33.806596</dc:date>
    <dc:format>image/svg+xml</dc:format>
    <dc:creator>
     <cc:Agent>
      <dc:title>Matplotlib v3.8.4, https://matplotlib.org/</dc:title>
     </cc:Agent>
    </dc:creator>
   </cc:Work>
  </rdf:RDF>
 </metadata>
 <defs>
  <style type="text/css">*{stroke-linejoin: round; stroke-linecap: butt}</style>
 </defs>
 <g id="figure_1">
  <g id="patch_1">
   <path d="M 0 295.630125 
L 367.953856 295.630125 
L 367.953856 0 
L 0 0 
z
" style="fill: #ffffff"/>
  </g>
  <g id="axes_1">
   <g id="patch_2">
    <path d="M 303.314267 155.374125 
C 303.314267 129.979308 294.226504 105.404139 277.704172 86.11919 
C 261.181839 66.834241 238.291492 54.084402 213.197211 50.189049 
C 188.102929 46.293696 162.424608 51.504284 140.8335 64.872933 
C 119.242391 78.241582 103.132253 98.905313 95.433746 123.105101 
L 196.869467 155.374125 
z
" style="fill: #1f77b4"/>
   </g>
   <g id="patch_3">
    <path d="M 95.433746 123.105101 
C 90.442336 138.795296 89.158797 155.431724 91.684392 171.701873 
C 94.209987 187.972022 100.476504 203.436464 109.989554 216.87515 
C 119.502604 230.313835 132.005255 241.363809 146.511126 249.153296 
C 161.016996 256.942782 177.134308 261.261401 193.591504 261.768441 
L 196.869467 155.374125 
z
" style="fill: #ff7f0e"/>
   </g>
   <g id="patch_4">
    <path d="M 193.591504 261.768441 
C 215.60895 262.446789 237.303352 256.274197 255.665856 244.106758 
C 274.028359 231.939319 288.168901 214.366811 296.126292 193.82641 
L 196.869467 155.374125 
z
" style="fill: #2ca02c"/>
   </g>
   <g id="patch_5">
    <path d="M 296.126292 193.82641 
C 297.705895 189.748984 299.032749 185.578096 300.099311 181.33746 
C 301.165874 177.096824 301.970118 172.794493 302.507472 168.454931 
L 196.869467 155.374125 
z
" style="fill: #d62728"/>
   </g>
   <g id="patch_6">
    <path d="M 302.507472 168.454931 
C 302.776085 166.285665 302.977816 164.108638 303.112377 161.92695 
C 303.246939 159.745261 303.314268 157.559946 303.314267 155.374111 
L 196.869467 155.374125 
z
" style="fill: #9467bd"/>
   </g>
   <g id="matplotlib.axis_1"/>
   <g id="matplotlib.axis_2"/>
   <g id="text_1">
    <!-- 1 година -->
    <g transform="translate(214.829985 42.429916) scale(0.1 -0.1)">
     <defs>
      <path id="DejaVuSans-31" d="M 794 531 
L 1825 531 
L 1825 4091 
L 703 3866 
L 703 4441 
L 1819 4666 
L 2450 4666 
L 2450 531 
L 3481 531 
L 3481 0 
L 794 0 
L 794 531 
z
" transform="scale(0.015625)"/>
      <path id="DejaVuSans-20" transform="scale(0.015625)"/>
      <path id="DejaVuSans-433" d="M 581 0 
L 581 3500 
L 3050 3500 
L 3050 3041 
L 1159 3041 
L 1159 0 
L 581 0 
z
" transform="scale(0.015625)"/>
      <path id="DejaVuSans-43e" d="M 1959 3097 
Q 1497 3097 1228 2736 
Q 959 2375 959 1747 
Q 959 1119 1226 758 
Q 1494 397 1959 397 
Q 2419 397 2687 759 
Q 2956 1122 2956 1747 
Q 2956 2369 2687 2733 
Q 2419 3097 1959 3097 
z
M 1959 3584 
Q 2709 3584 3137 3096 
Q 3566 2609 3566 1747 
Q 3566 888 3137 398 
Q 2709 -91 1959 -91 
Q 1206 -91 779 398 
Q 353 888 353 1747 
Q 353 2609 779 3096 
Q 1206 3584 1959 3584 
z
" transform="scale(0.015625)"/>
      <path id="DejaVuSans-434" d="M 1384 459 
L 3053 459 
L 3053 3041 
L 1844 3041 
L 1844 2603 
Q 1844 1316 1475 628 
L 1384 459 
z
M 550 459 
Q 834 584 959 850 
Q 1266 1509 1266 2838 
L 1266 3500 
L 3631 3500 
L 3631 459 
L 4091 459 
L 4091 -884 
L 3631 -884 
L 3631 0 
L 794 0 
L 794 -884 
L 334 -884 
L 334 459 
L 550 459 
z
" transform="scale(0.015625)"/>
      <path id="DejaVuSans-438" d="M 3578 3500 
L 3578 0 
L 3006 0 
L 3006 2809 
L 1319 0 
L 581 0 
L 581 3500 
L 1153 3500 
L 1153 697 
L 2838 3500 
L 3578 3500 
z
" transform="scale(0.015625)"/>
      <path id="DejaVuSans-43d" d="M 581 3500 
L 1159 3500 
L 1159 2072 
L 3025 2072 
L 3025 3500 
L 3603 3500 
L 3603 0 
L 3025 0 
L 3025 1613 
L 1159 1613 
L 1159 0 
L 581 0 
L 581 3500 
z
" transform="scale(0.015625)"/>
      <path id="DejaVuSans-430" d="M 2194 1759 
Q 1497 1759 1228 1600 
Q 959 1441 959 1056 
Q 959 750 1161 570 
Q 1363 391 1709 391 
Q 2188 391 2477 730 
Q 2766 1069 2766 1631 
L 2766 1759 
L 2194 1759 
z
M 3341 1997 
L 3341 0 
L 2766 0 
L 2766 531 
Q 2569 213 2275 61 
Q 1981 -91 1556 -91 
Q 1019 -91 701 211 
Q 384 513 384 1019 
Q 384 1609 779 1909 
Q 1175 2209 1959 2209 
L 2766 2209 
L 2766 2266 
Q 2766 2663 2505 2880 
Q 2244 3097 1772 3097 
Q 1472 3097 1187 3025 
Q 903 2953 641 2809 
L 641 3341 
Q 956 3463 1253 3523 
Q 1550 3584 1831 3584 
Q 2591 3584 2966 3190 
Q 3341 2797 3341 1997 
z
" transform="scale(0.015625)"/>
     </defs>
     <use xlink:href="#DejaVuSans-31"/>
     <use xlink:href="#DejaVuSans-20" x="63.623047"/>
     <use xlink:href="#DejaVuSans-433" x="95.410156"/>
     <use xlink:href="#DejaVuSans-43e" x="147.949219"/>
     <use xlink:href="#DejaVuSans-434" x="209.130859"/>
     <use xlink:href="#DejaVuSans-438" x="278.271484"/>
     <use xlink:href="#DejaVuSans-43d" x="343.261719"/>
     <use xlink:href="#DejaVuSans-430" x="408.642578"/>
    </g>
   </g>
   <g id="text_2">
    <!-- више од 4 године -->
    <g transform="translate(7.2 225.784627) scale(0.1 -0.1)">
     <defs>
      <path id="DejaVuSans-432" d="M 1156 1613 
L 1156 459 
L 1975 459 
Q 2369 459 2575 607 
Q 2781 756 2781 1038 
Q 2781 1319 2575 1466 
Q 2369 1613 1975 1613 
L 1156 1613 
z
M 1156 3041 
L 1156 2072 
L 1913 2072 
Q 2238 2072 2444 2201 
Q 2650 2331 2650 2563 
Q 2650 2794 2444 2917 
Q 2238 3041 1913 3041 
L 1156 3041 
z
M 581 3500 
L 1950 3500 
Q 2566 3500 2897 3275 
Q 3228 3050 3228 2634 
Q 3228 2313 3059 2123 
Q 2891 1934 2559 1888 
Q 2956 1813 3175 1575 
Q 3394 1338 3394 981 
Q 3394 513 3033 256 
Q 2672 0 2003 0 
L 581 0 
L 581 3500 
z
" transform="scale(0.015625)"/>
      <path id="DejaVuSans-448" d="M 3216 459 
L 4697 459 
L 4697 3500 
L 5275 3500 
L 5275 0 
L 581 0 
L 581 3500 
L 1159 3500 
L 1159 459 
L 2638 459 
L 2638 3500 
L 3216 3500 
L 3216 459 
z
" transform="scale(0.015625)"/>
      <path id="DejaVuSans-435" d="M 3597 1894 
L 3597 1613 
L 953 1613 
Q 991 1019 1311 708 
Q 1631 397 2203 397 
Q 2534 397 2845 478 
Q 3156 559 3463 722 
L 3463 178 
Q 3153 47 2828 -22 
Q 2503 -91 2169 -91 
Q 1331 -91 842 396 
Q 353 884 353 1716 
Q 353 2575 817 3079 
Q 1281 3584 2069 3584 
Q 2775 3584 3186 3129 
Q 3597 2675 3597 1894 
z
M 3022 2063 
Q 3016 2534 2758 2815 
Q 2500 3097 2075 3097 
Q 1594 3097 1305 2825 
Q 1016 2553 972 2059 
L 3022 2063 
z
" transform="scale(0.015625)"/>
      <path id="DejaVuSans-34" d="M 2419 4116 
L 825 1625 
L 2419 1625 
L 2419 4116 
z
M 2253 4666 
L 3047 4666 
L 3047 1625 
L 3713 1625 
L 3713 1100 
L 3047 1100 
L 3047 0 
L 2419 0 
L 2419 1100 
L 313 1100 
L 313 1709 
L 2253 4666 
z
" transform="scale(0.015625)"/>
     </defs>
     <use xlink:href="#DejaVuSans-432"/>
     <use xlink:href="#DejaVuSans-438" x="58.935547"/>
     <use xlink:href="#DejaVuSans-448" x="123.925781"/>
     <use xlink:href="#DejaVuSans-435" x="215.429688"/>
     <use xlink:href="#DejaVuSans-20" x="276.953125"/>
     <use xlink:href="#DejaVuSans-43e" x="308.740234"/>
     <use xlink:href="#DejaVuSans-434" x="369.921875"/>
     <use xlink:href="#DejaVuSans-20" x="439.0625"/>
     <use xlink:href="#DejaVuSans-34" x="470.849609"/>
     <use xlink:href="#DejaVuSans-20" x="534.472656"/>
     <use xlink:href="#DejaVuSans-433" x="566.259766"/>
     <use xlink:href="#DejaVuSans-43e" x="618.798828"/>
     <use xlink:href="#DejaVuSans-434" x="679.980469"/>
     <use xlink:href="#DejaVuSans-438" x="749.121094"/>
     <use xlink:href="#DejaVuSans-43d" x="814.111328"/>
     <use xlink:href="#DejaVuSans-435" x="879.492188"/>
    </g>
   </g>
   <g id="text_3">
    <!-- 4 године -->
    <g transform="translate(261.545495 255.739396) scale(0.1 -0.1)">
     <use xlink:href="#DejaVuSans-34"/>
     <use xlink:href="#DejaVuSans-20" x="63.623047"/>
     <use xlink:href="#DejaVuSans-433" x="95.410156"/>
     <use xlink:href="#DejaVuSans-43e" x="147.949219"/>
     <use xlink:href="#DejaVuSans-434" x="209.130859"/>
     <use xlink:href="#DejaVuSans-438" x="278.271484"/>
     <use xlink:href="#DejaVuSans-43d" x="343.261719"/>
     <use xlink:href="#DejaVuSans-435" x="408.642578"/>
    </g>
   </g>
   <g id="text_4">
    <!-- 2 године -->
    <g transform="translate(310.422296 186.693168) scale(0.1 -0.1)">
     <defs>
      <path id="DejaVuSans-32" d="M 1228 531 
L 3431 531 
L 3431 0 
L 469 0 
L 469 531 
Q 828 903 1448 1529 
Q 2069 2156 2228 2338 
Q 2531 2678 2651 2914 
Q 2772 3150 2772 3378 
Q 2772 3750 2511 3984 
Q 2250 4219 1831 4219 
Q 1534 4219 1204 4116 
Q 875 4013 500 3803 
L 500 4441 
Q 881 4594 1212 4672 
Q 1544 4750 1819 4750 
Q 2544 4750 2975 4387 
Q 3406 4025 3406 3419 
Q 3406 3131 3298 2873 
Q 3191 2616 2906 2266 
Q 2828 2175 2409 1742 
Q 1991 1309 1228 531 
z
" transform="scale(0.015625)"/>
     </defs>
     <use xlink:href="#DejaVuSans-32"/>
     <use xlink:href="#DejaVuSans-20" x="63.623047"/>
     <use xlink:href="#DejaVuSans-433" x="95.410156"/>
     <use xlink:href="#DejaVuSans-43e" x="147.949219"/>
     <use xlink:href="#DejaVuSans-434" x="209.130859"/>
     <use xlink:href="#DejaVuSans-438" x="278.271484"/>
     <use xlink:href="#DejaVuSans-43d" x="343.261719"/>
     <use xlink:href="#DejaVuSans-435" x="408.642578"/>
    </g>
   </g>
   <g id="text_5">
    <!-- 3 године -->
    <g transform="translate(313.736668 165.341607) scale(0.1 -0.1)">
     <defs>
      <path id="DejaVuSans-33" d="M 2597 2516 
Q 3050 2419 3304 2112 
Q 3559 1806 3559 1356 
Q 3559 666 3084 287 
Q 2609 -91 1734 -91 
Q 1441 -91 1130 -33 
Q 819 25 488 141 
L 488 750 
Q 750 597 1062 519 
Q 1375 441 1716 441 
Q 2309 441 2620 675 
Q 2931 909 2931 1356 
Q 2931 1769 2642 2001 
Q 2353 2234 1838 2234 
L 1294 2234 
L 1294 2753 
L 1863 2753 
Q 2328 2753 2575 2939 
Q 2822 3125 2822 3475 
Q 2822 3834 2567 4026 
Q 2313 4219 1838 4219 
Q 1578 4219 1281 4162 
Q 984 4106 628 3988 
L 628 4550 
Q 988 4650 1302 4700 
Q 1616 4750 1894 4750 
Q 2613 4750 3031 4423 
Q 3450 4097 3450 3541 
Q 3450 3153 3228 2886 
Q 3006 2619 2597 2516 
z
" transform="scale(0.015625)"/>
     </defs>
     <use xlink:href="#DejaVuSans-33"/>
     <use xlink:href="#DejaVuSans-20" x="63.623047"/>
     <use xlink:href="#DejaVuSans-433" x="95.410156"/>
     <use xlink:href="#DejaVuSans-43e" x="147.949219"/>
     <use xlink:href="#DejaVuSans-434" x="209.130859"/>
     <use xlink:href="#DejaVuSans-438" x="278.271484"/>
     <use xlink:href="#DejaVuSans-43d" x="343.261719"/>
     <use xlink:href="#DejaVuSans-435" x="408.642578"/>
    </g>
   </g>
   <g id="text_6">
    <!-- Дужина студирања на тренутном програму -->
    <g transform="translate(57.34978 16.318125) scale(0.12 -0.12)">
     <defs>
      <path id="DejaVuSans-414" d="M 1459 531 
L 3522 531 
L 3522 4134 
L 2006 4134 
L 2006 3472 
Q 2006 1913 1656 878 
Q 1584 666 1459 531 
z
M 538 531 
Q 956 728 1075 1103 
Q 1378 2066 1378 3784 
L 1378 4666 
L 4153 4666 
L 4153 531 
L 4684 531 
L 4684 -1003 
L 4153 -1003 
L 4153 0 
L 847 0 
L 847 -1003 
L 316 -1003 
L 316 531 
L 538 531 
z
" transform="scale(0.015625)"/>
      <path id="DejaVuSans-443" d="M 2059 -325 
Q 1816 -950 1584 -1140 
Q 1353 -1331 966 -1331 
L 506 -1331 
L 506 -850 
L 844 -850 
Q 1081 -850 1212 -737 
Q 1344 -625 1503 -206 
L 1606 56 
L 191 3500 
L 800 3500 
L 1894 763 
L 2988 3500 
L 3597 3500 
L 2059 -325 
z
" transform="scale(0.015625)"/>
      <path id="DejaVuSans-436" d="M 2597 3500 
L 3169 3500 
L 3169 1856 
L 4697 3500 
L 5366 3500 
L 4109 2153 
L 5547 0 
L 4931 0 
L 3753 1769 
L 3169 1141 
L 3169 0 
L 2597 0 
L 2597 1141 
L 2013 1769 
L 834 0 
L 219 0 
L 1656 2153 
L 400 3500 
L 1069 3500 
L 2597 1856 
L 2597 3500 
z
" transform="scale(0.015625)"/>
      <path id="DejaVuSans-441" d="M 3122 3366 
L 3122 2828 
Q 2878 2963 2633 3030 
Q 2388 3097 2138 3097 
Q 1578 3097 1268 2742 
Q 959 2388 959 1747 
Q 959 1106 1268 751 
Q 1578 397 2138 397 
Q 2388 397 2633 464 
Q 2878 531 3122 666 
L 3122 134 
Q 2881 22 2623 -34 
Q 2366 -91 2075 -91 
Q 1284 -91 818 406 
Q 353 903 353 1747 
Q 353 2603 823 3093 
Q 1294 3584 2113 3584 
Q 2378 3584 2631 3529 
Q 2884 3475 3122 3366 
z
" transform="scale(0.015625)"/>
      <path id="DejaVuSans-442" d="M 188 3500 
L 3541 3500 
L 3541 3041 
L 2147 3041 
L 2147 0 
L 1581 0 
L 1581 3041 
L 188 3041 
L 188 3500 
z
" transform="scale(0.015625)"/>
      <path id="DejaVuSans-440" d="M 1159 525 
L 1159 -1331 
L 581 -1331 
L 581 3500 
L 1159 3500 
L 1159 2969 
Q 1341 3281 1617 3432 
Q 1894 3584 2278 3584 
Q 2916 3584 3314 3078 
Q 3713 2572 3713 1747 
Q 3713 922 3314 415 
Q 2916 -91 2278 -91 
Q 1894 -91 1617 61 
Q 1341 213 1159 525 
z
M 3116 1747 
Q 3116 2381 2855 2742 
Q 2594 3103 2138 3103 
Q 1681 3103 1420 2742 
Q 1159 2381 1159 1747 
Q 1159 1113 1420 752 
Q 1681 391 2138 391 
Q 2594 391 2855 752 
Q 3116 1113 3116 1747 
z
" transform="scale(0.015625)"/>
      <path id="DejaVuSans-45a" d="M 3444 3500 
L 3444 2072 
L 3978 2072 
Q 4647 2072 5009 1817 
Q 5372 1563 5372 1038 
Q 5372 513 5011 256 
Q 4650 0 3981 0 
L 2866 0 
L 2866 1613 
L 1159 1613 
L 1159 0 
L 581 0 
L 581 3500 
L 1159 3500 
L 1159 2072 
L 2866 2072 
L 2866 3500 
L 3444 3500 
z
M 3953 459 
Q 4347 459 4553 607 
Q 4759 756 4759 1038 
Q 4759 1319 4553 1466 
Q 4347 1613 3953 1613 
L 3444 1613 
L 3444 459 
L 3953 459 
z
" transform="scale(0.015625)"/>
      <path id="DejaVuSans-43c" d="M 581 3500 
L 1422 3500 
L 2416 1156 
L 3413 3500 
L 4247 3500 
L 4247 0 
L 3669 0 
L 3669 2950 
L 2703 672 
L 2128 672 
L 1159 2950 
L 1159 0 
L 581 0 
L 581 3500 
z
" transform="scale(0.015625)"/>
      <path id="DejaVuSans-43f" d="M 3603 3500 
L 3603 0 
L 3025 0 
L 3025 3041 
L 1159 3041 
L 1159 0 
L 581 0 
L 581 3500 
L 3603 3500 
z
" transform="scale(0.015625)"/>
     </defs>
     <use xlink:href="#DejaVuSans-414"/>
     <use xlink:href="#DejaVuSans-443" x="78.125"/>
     <use xlink:href="#DejaVuSans-436" x="137.304688"/>
     <use xlink:href="#DejaVuSans-438" x="227.392578"/>
     <use xlink:href="#DejaVuSans-43d" x="292.382812"/>
     <use xlink:href="#DejaVuSans-430" x="357.763672"/>
     <use xlink:href="#DejaVuSans-20" x="419.042969"/>
     <use xlink:href="#DejaVuSans-441" x="450.830078"/>
     <use xlink:href="#DejaVuSans-442" x="505.810547"/>
     <use xlink:href="#DejaVuSans-443" x="564.0625"/>
     <use xlink:href="#DejaVuSans-434" x="623.242188"/>
     <use xlink:href="#DejaVuSans-438" x="692.382812"/>
     <use xlink:href="#DejaVuSans-440" x="757.373047"/>
     <use xlink:href="#DejaVuSans-430" x="820.849609"/>
     <use xlink:href="#DejaVuSans-45a" x="882.128906"/>
     <use xlink:href="#DejaVuSans-430" x="971.972656"/>
     <use xlink:href="#DejaVuSans-20" x="1033.251953"/>
     <use xlink:href="#DejaVuSans-43d" x="1065.039062"/>
     <use xlink:href="#DejaVuSans-430" x="1130.419922"/>
     <use xlink:href="#DejaVuSans-20" x="1191.699219"/>
     <use xlink:href="#DejaVuSans-442" x="1223.486328"/>
     <use xlink:href="#DejaVuSans-440" x="1281.738281"/>
     <use xlink:href="#DejaVuSans-435" x="1345.214844"/>
     <use xlink:href="#DejaVuSans-43d" x="1406.738281"/>
     <use xlink:href="#DejaVuSans-443" x="1472.119141"/>
     <use xlink:href="#DejaVuSans-442" x="1531.298828"/>
     <use xlink:href="#DejaVuSans-43d" x="1589.550781"/>
     <use xlink:href="#DejaVuSans-43e" x="1654.931641"/>
     <use xlink:href="#DejaVuSans-43c" x="1716.113281"/>
     <use xlink:href="#DejaVuSans-20" x="1791.552734"/>
     <use xlink:href="#DejaVuSans-43f" x="1823.339844"/>
     <use xlink:href="#DejaVuSans-440" x="1888.720703"/>
     <use xlink:href="#DejaVuSans-43e" x="1952.197266"/>
     <use xlink:href="#DejaVuSans-433" x="2013.378906"/>
     <use xlink:href="#DejaVuSans-440" x="2065.917969"/>
     <use xlink:href="#DejaVuSans-430" x="2129.394531"/>
     <use xlink:href="#DejaVuSans-43c" x="2190.673828"/>
     <use xlink:href="#DejaVuSans-443" x="2266.113281"/>
    </g>
   </g>
  </g>
 </g>
</svg>
