<?xml version="1.0" encoding="utf-8" standalone="no"?>
<!DOCTYPE svg PUBLIC "-//W3C//DTD SVG 1.1//EN"
  "http://www.w3.org/Graphics/SVG/1.1/DTD/svg11.dtd">
<svg xmlns:xlink="http://www.w3.org/1999/xlink" width="398.982593pt" height="295.630125pt" viewBox="0 0 398.982593 295.630125" xmlns="http://www.w3.org/2000/svg" version="1.1">
 <metadata>
  <rdf:RDF xmlns:dc="http://purl.org/dc/elements/1.1/" xmlns:cc="http://creativecommons.org/ns#" xmlns:rdf="http://www.w3.org/1999/02/22-rdf-syntax-ns#">
   <cc:Work>
    <dc:type rdf:resource="http://purl.org/dc/dcmitype/StillImage"/>
    <dc:date>2024-11-20T19:30:33.867747</dc:date>
    <dc:format>image/svg+xml</dc:format>
    <dc:creator>
     <cc:Agent>
      <dc:title>Matplotlib v3.8.4, https://matplotlib.org/</dc:title>
     </cc:Agent>
    </dc:creator>
   </cc:Work>
  </rdf:RDF>
 </metadata>
 <defs>
  <style type="text/css">*{stroke-linejoin: round; stroke-linecap: butt}</style>
 </defs>
 <g id="figure_1">
  <g id="patch_1">
   <path d="M 0 295.630125 
L 398.982593 295.630125 
L 398.982593 0 
L 0 0 
z
" style="fill: #ffffff"/>
  </g>
  <g id="axes_1">
   <g id="patch_2">
    <path d="M 259.362092 155.374125 
C 259.362092 129.979308 250.274329 105.404139 233.751996 86.11919 
C 217.229663 66.834241 194.339317 54.084402 169.245035 50.189049 
C 144.150754 46.293696 118.472433 51.504284 96.881325 64.872933 
C 75.290216 78.241582 59.180077 98.905313 51.481571 123.105101 
L 152.917292 155.374125 
z
" style="fill: #1f77b4"/>
   </g>
   <g id="patch_3">
    <path d="M 51.481571 123.105101 
C 46.154187 139.851411 45.055837 157.659255 48.284918 174.933309 
C 51.513999 192.207364 58.971116 208.415914 69.98822 222.106909 
C 81.005323 235.797903 95.243296 246.549919 111.42662 253.399732 
C 127.609944 260.249544 145.240481 262.986308 162.738789 261.364849 
L 152.917292 155.374125 
z
" style="fill: #ff7f0e"/>
   </g>
   <g id="patch_4">
    <path d="M 162.738789 261.364849 
C 178.03192 259.947731 192.838723 255.237346 206.139702 247.55802 
C 219.440681 239.878694 230.923394 229.410816 239.797217 216.875134 
L 152.917292 155.374125 
z
" style="fill: #2ca02c"/>
   </g>
   <g id="patch_5">
    <path d="M 239.797217 216.875134 
C 243.588364 211.519538 246.876195 205.824846 249.618702 199.863818 
C 252.361209 193.90279 254.546662 187.700923 256.147136 181.337459 
L 152.917292 155.374125 
z
" style="fill: #d62728"/>
   </g>
   <g id="patch_6">
    <path d="M 256.147136 181.337459 
C 257.213699 177.096823 258.017943 172.794492 258.555297 168.45493 
C 259.09265 164.115368 259.362093 159.746815 259.362092 155.37411 
L 152.917292 155.374125 
z
" style="fill: #9467bd"/>
   </g>
   <g id="matplotlib.axis_1"/>
   <g id="matplotlib.axis_2"/>
   <g id="text_1">
    <!-- 7.01 - 8.00 -->
    <g transform="translate(170.877809 42.429916) scale(0.1 -0.1)">
     <defs>
      <path id="DejaVuSans-37" d="M 525 4666 
L 3525 4666 
L 3525 4397 
L 1831 0 
L 1172 0 
L 2766 4134 
L 525 4134 
L 525 4666 
z
" transform="scale(0.015625)"/>
      <path id="DejaVuSans-2e" d="M 684 794 
L 1344 794 
L 1344 0 
L 684 0 
L 684 794 
z
" transform="scale(0.015625)"/>
      <path id="DejaVuSans-30" d="M 2034 4250 
Q 1547 4250 1301 3770 
Q 1056 3291 1056 2328 
Q 1056 1369 1301 889 
Q 1547 409 2034 409 
Q 2525 409 2770 889 
Q 3016 1369 3016 2328 
Q 3016 3291 2770 3770 
Q 2525 4250 2034 4250 
z
M 2034 4750 
Q 2819 4750 3233 4129 
Q 3647 3509 3647 2328 
Q 3647 1150 3233 529 
Q 2819 -91 2034 -91 
Q 1250 -91 836 529 
Q 422 1150 422 2328 
Q 422 3509 836 4129 
Q 1250 4750 2034 4750 
z
" transform="scale(0.015625)"/>
      <path id="DejaVuSans-31" d="M 794 531 
L 1825 531 
L 1825 4091 
L 703 3866 
L 703 4441 
L 1819 4666 
L 2450 4666 
L 2450 531 
L 3481 531 
L 3481 0 
L 794 0 
L 794 531 
z
" transform="scale(0.015625)"/>
      <path id="DejaVuSans-20" transform="scale(0.015625)"/>
      <path id="DejaVuSans-2d" d="M 313 2009 
L 1997 2009 
L 1997 1497 
L 313 1497 
L 313 2009 
z
" transform="scale(0.015625)"/>
      <path id="DejaVuSans-38" d="M 2034 2216 
Q 1584 2216 1326 1975 
Q 1069 1734 1069 1313 
Q 1069 891 1326 650 
Q 1584 409 2034 409 
Q 2484 409 2743 651 
Q 3003 894 3003 1313 
Q 3003 1734 2745 1975 
Q 2488 2216 2034 2216 
z
M 1403 2484 
Q 997 2584 770 2862 
Q 544 3141 544 3541 
Q 544 4100 942 4425 
Q 1341 4750 2034 4750 
Q 2731 4750 3128 4425 
Q 3525 4100 3525 3541 
Q 3525 3141 3298 2862 
Q 3072 2584 2669 2484 
Q 3125 2378 3379 2068 
Q 3634 1759 3634 1313 
Q 3634 634 3220 271 
Q 2806 -91 2034 -91 
Q 1263 -91 848 271 
Q 434 634 434 1313 
Q 434 1759 690 2068 
Q 947 2378 1403 2484 
z
M 1172 3481 
Q 1172 3119 1398 2916 
Q 1625 2713 2034 2713 
Q 2441 2713 2670 2916 
Q 2900 3119 2900 3481 
Q 2900 3844 2670 4047 
Q 2441 4250 2034 4250 
Q 1625 4250 1398 4047 
Q 1172 3844 1172 3481 
z
" transform="scale(0.015625)"/>
     </defs>
     <use xlink:href="#DejaVuSans-37"/>
     <use xlink:href="#DejaVuSans-2e" x="63.623047"/>
     <use xlink:href="#DejaVuSans-30" x="95.410156"/>
     <use xlink:href="#DejaVuSans-31" x="159.033203"/>
     <use xlink:href="#DejaVuSans-20" x="222.65625"/>
     <use xlink:href="#DejaVuSans-2d" x="254.443359"/>
     <use xlink:href="#DejaVuSans-20" x="290.527344"/>
     <use xlink:href="#DejaVuSans-38" x="322.314453"/>
     <use xlink:href="#DejaVuSans-2e" x="385.9375"/>
     <use xlink:href="#DejaVuSans-30" x="417.724609"/>
     <use xlink:href="#DejaVuSans-30" x="481.347656"/>
    </g>
   </g>
   <g id="text_2">
    <!-- 8.01 - 9.00 -->
    <g transform="translate(7.2 231.539562) scale(0.1 -0.1)">
     <defs>
      <path id="DejaVuSans-39" d="M 703 97 
L 703 672 
Q 941 559 1184 500 
Q 1428 441 1663 441 
Q 2288 441 2617 861 
Q 2947 1281 2994 2138 
Q 2813 1869 2534 1725 
Q 2256 1581 1919 1581 
Q 1219 1581 811 2004 
Q 403 2428 403 3163 
Q 403 3881 828 4315 
Q 1253 4750 1959 4750 
Q 2769 4750 3195 4129 
Q 3622 3509 3622 2328 
Q 3622 1225 3098 567 
Q 2575 -91 1691 -91 
Q 1453 -91 1209 -44 
Q 966 3 703 97 
z
M 1959 2075 
Q 2384 2075 2632 2365 
Q 2881 2656 2881 3163 
Q 2881 3666 2632 3958 
Q 2384 4250 1959 4250 
Q 1534 4250 1286 3958 
Q 1038 3666 1038 3163 
Q 1038 2656 1286 2365 
Q 1534 2075 1959 2075 
z
" transform="scale(0.015625)"/>
     </defs>
     <use xlink:href="#DejaVuSans-38"/>
     <use xlink:href="#DejaVuSans-2e" x="63.623047"/>
     <use xlink:href="#DejaVuSans-30" x="95.410156"/>
     <use xlink:href="#DejaVuSans-31" x="159.033203"/>
     <use xlink:href="#DejaVuSans-20" x="222.65625"/>
     <use xlink:href="#DejaVuSans-2d" x="254.443359"/>
     <use xlink:href="#DejaVuSans-20" x="290.527344"/>
     <use xlink:href="#DejaVuSans-39" x="322.314453"/>
     <use xlink:href="#DejaVuSans-2e" x="385.9375"/>
     <use xlink:href="#DejaVuSans-30" x="417.724609"/>
     <use xlink:href="#DejaVuSans-30" x="481.347656"/>
    </g>
   </g>
   <g id="text_3">
    <!-- 9.01 - 10.00 -->
    <g transform="translate(211.461943 259.535785) scale(0.1 -0.1)">
     <use xlink:href="#DejaVuSans-39"/>
     <use xlink:href="#DejaVuSans-2e" x="63.623047"/>
     <use xlink:href="#DejaVuSans-30" x="95.410156"/>
     <use xlink:href="#DejaVuSans-31" x="159.033203"/>
     <use xlink:href="#DejaVuSans-20" x="222.65625"/>
     <use xlink:href="#DejaVuSans-2d" x="254.443359"/>
     <use xlink:href="#DejaVuSans-20" x="290.527344"/>
     <use xlink:href="#DejaVuSans-31" x="322.314453"/>
     <use xlink:href="#DejaVuSans-30" x="385.9375"/>
     <use xlink:href="#DejaVuSans-2e" x="449.560547"/>
     <use xlink:href="#DejaVuSans-30" x="481.347656"/>
     <use xlink:href="#DejaVuSans-30" x="544.970703"/>
    </g>
   </g>
   <g id="text_4">
    <!-- не желим да се изјасним -->
    <g transform="translate(259.288843 207.072162) scale(0.1 -0.1)">
     <defs>
      <path id="DejaVuSans-43d" d="M 581 3500 
L 1159 3500 
L 1159 2072 
L 3025 2072 
L 3025 3500 
L 3603 3500 
L 3603 0 
L 3025 0 
L 3025 1613 
L 1159 1613 
L 1159 0 
L 581 0 
L 581 3500 
z
" transform="scale(0.015625)"/>
      <path id="DejaVuSans-435" d="M 3597 1894 
L 3597 1613 
L 953 1613 
Q 991 1019 1311 708 
Q 1631 397 2203 397 
Q 2534 397 2845 478 
Q 3156 559 3463 722 
L 3463 178 
Q 3153 47 2828 -22 
Q 2503 -91 2169 -91 
Q 1331 -91 842 396 
Q 353 884 353 1716 
Q 353 2575 817 3079 
Q 1281 3584 2069 3584 
Q 2775 3584 3186 3129 
Q 3597 2675 3597 1894 
z
M 3022 2063 
Q 3016 2534 2758 2815 
Q 2500 3097 2075 3097 
Q 1594 3097 1305 2825 
Q 1016 2553 972 2059 
L 3022 2063 
z
" transform="scale(0.015625)"/>
      <path id="DejaVuSans-436" d="M 2597 3500 
L 3169 3500 
L 3169 1856 
L 4697 3500 
L 5366 3500 
L 4109 2153 
L 5547 0 
L 4931 0 
L 3753 1769 
L 3169 1141 
L 3169 0 
L 2597 0 
L 2597 1141 
L 2013 1769 
L 834 0 
L 219 0 
L 1656 2153 
L 400 3500 
L 1069 3500 
L 2597 1856 
L 2597 3500 
z
" transform="scale(0.015625)"/>
      <path id="DejaVuSans-43b" d="M 238 0 
L 238 478 
Q 806 566 981 959 
Q 1194 1513 1194 2928 
L 1194 3500 
L 3559 3500 
L 3559 0 
L 2984 0 
L 2984 3041 
L 1769 3041 
L 1769 2694 
Q 1769 1344 1494 738 
Q 1200 91 238 0 
z
" transform="scale(0.015625)"/>
      <path id="DejaVuSans-438" d="M 3578 3500 
L 3578 0 
L 3006 0 
L 3006 2809 
L 1319 0 
L 581 0 
L 581 3500 
L 1153 3500 
L 1153 697 
L 2838 3500 
L 3578 3500 
z
" transform="scale(0.015625)"/>
      <path id="DejaVuSans-43c" d="M 581 3500 
L 1422 3500 
L 2416 1156 
L 3413 3500 
L 4247 3500 
L 4247 0 
L 3669 0 
L 3669 2950 
L 2703 672 
L 2128 672 
L 1159 2950 
L 1159 0 
L 581 0 
L 581 3500 
z
" transform="scale(0.015625)"/>
      <path id="DejaVuSans-434" d="M 1384 459 
L 3053 459 
L 3053 3041 
L 1844 3041 
L 1844 2603 
Q 1844 1316 1475 628 
L 1384 459 
z
M 550 459 
Q 834 584 959 850 
Q 1266 1509 1266 2838 
L 1266 3500 
L 3631 3500 
L 3631 459 
L 4091 459 
L 4091 -884 
L 3631 -884 
L 3631 0 
L 794 0 
L 794 -884 
L 334 -884 
L 334 459 
L 550 459 
z
" transform="scale(0.015625)"/>
      <path id="DejaVuSans-430" d="M 2194 1759 
Q 1497 1759 1228 1600 
Q 959 1441 959 1056 
Q 959 750 1161 570 
Q 1363 391 1709 391 
Q 2188 391 2477 730 
Q 2766 1069 2766 1631 
L 2766 1759 
L 2194 1759 
z
M 3341 1997 
L 3341 0 
L 2766 0 
L 2766 531 
Q 2569 213 2275 61 
Q 1981 -91 1556 -91 
Q 1019 -91 701 211 
Q 384 513 384 1019 
Q 384 1609 779 1909 
Q 1175 2209 1959 2209 
L 2766 2209 
L 2766 2266 
Q 2766 2663 2505 2880 
Q 2244 3097 1772 3097 
Q 1472 3097 1187 3025 
Q 903 2953 641 2809 
L 641 3341 
Q 956 3463 1253 3523 
Q 1550 3584 1831 3584 
Q 2591 3584 2966 3190 
Q 3341 2797 3341 1997 
z
" transform="scale(0.015625)"/>
      <path id="DejaVuSans-441" d="M 3122 3366 
L 3122 2828 
Q 2878 2963 2633 3030 
Q 2388 3097 2138 3097 
Q 1578 3097 1268 2742 
Q 959 2388 959 1747 
Q 959 1106 1268 751 
Q 1578 397 2138 397 
Q 2388 397 2633 464 
Q 2878 531 3122 666 
L 3122 134 
Q 2881 22 2623 -34 
Q 2366 -91 2075 -91 
Q 1284 -91 818 406 
Q 353 903 353 1747 
Q 353 2603 823 3093 
Q 1294 3584 2113 3584 
Q 2378 3584 2631 3529 
Q 2884 3475 3122 3366 
z
" transform="scale(0.015625)"/>
      <path id="DejaVuSans-437" d="M 2206 1888 
Q 2594 1813 2809 1584 
Q 3025 1356 3025 1019 
Q 3025 478 2622 193 
Q 2219 -91 1475 -91 
Q 1225 -91 961 -47 
Q 697 -3 416 84 
L 416 619 
Q 638 503 903 445 
Q 1169 388 1459 388 
Q 1931 388 2195 563 
Q 2459 738 2459 1019 
Q 2459 1294 2225 1461 
Q 1991 1628 1563 1628 
L 1100 1628 
L 1100 2103 
L 1584 2103 
Q 1947 2103 2158 2242 
Q 2369 2381 2369 2600 
Q 2369 2800 2151 2944 
Q 1934 3088 1563 3088 
Q 1341 3088 1089 3047 
Q 838 3006 534 2916 
L 534 3438 
Q 841 3513 1106 3550 
Q 1372 3588 1609 3588 
Q 2222 3588 2576 3342 
Q 2931 3097 2931 2656 
Q 2931 2366 2743 2164 
Q 2556 1963 2206 1888 
z
" transform="scale(0.015625)"/>
      <path id="DejaVuSans-458" d="M 603 3500 
L 1178 3500 
L 1178 -63 
Q 1178 -731 923 -1031 
Q 669 -1331 103 -1331 
L -116 -1331 
L -116 -844 
L 38 -844 
Q 366 -844 484 -692 
Q 603 -541 603 -63 
L 603 3500 
z
M 603 4863 
L 1178 4863 
L 1178 4134 
L 603 4134 
L 603 4863 
z
" transform="scale(0.015625)"/>
     </defs>
     <use xlink:href="#DejaVuSans-43d"/>
     <use xlink:href="#DejaVuSans-435" x="65.380859"/>
     <use xlink:href="#DejaVuSans-20" x="126.904297"/>
     <use xlink:href="#DejaVuSans-436" x="158.691406"/>
     <use xlink:href="#DejaVuSans-435" x="248.779297"/>
     <use xlink:href="#DejaVuSans-43b" x="310.302734"/>
     <use xlink:href="#DejaVuSans-438" x="374.21875"/>
     <use xlink:href="#DejaVuSans-43c" x="439.208984"/>
     <use xlink:href="#DejaVuSans-20" x="514.648438"/>
     <use xlink:href="#DejaVuSans-434" x="546.435547"/>
     <use xlink:href="#DejaVuSans-430" x="615.576172"/>
     <use xlink:href="#DejaVuSans-20" x="676.855469"/>
     <use xlink:href="#DejaVuSans-441" x="708.642578"/>
     <use xlink:href="#DejaVuSans-435" x="763.623047"/>
     <use xlink:href="#DejaVuSans-20" x="825.146484"/>
     <use xlink:href="#DejaVuSans-438" x="856.933594"/>
     <use xlink:href="#DejaVuSans-437" x="921.923828"/>
     <use xlink:href="#DejaVuSans-458" x="975.097656"/>
     <use xlink:href="#DejaVuSans-430" x="1002.880859"/>
     <use xlink:href="#DejaVuSans-441" x="1064.160156"/>
     <use xlink:href="#DejaVuSans-43d" x="1119.140625"/>
     <use xlink:href="#DejaVuSans-438" x="1184.521484"/>
     <use xlink:href="#DejaVuSans-43c" x="1249.511719"/>
    </g>
   </g>
   <g id="text_5">
    <!-- мања од 7.00 -->
    <g transform="translate(269.119097 172.522386) scale(0.1 -0.1)">
     <defs>
      <path id="DejaVuSans-45a" d="M 3444 3500 
L 3444 2072 
L 3978 2072 
Q 4647 2072 5009 1817 
Q 5372 1563 5372 1038 
Q 5372 513 5011 256 
Q 4650 0 3981 0 
L 2866 0 
L 2866 1613 
L 1159 1613 
L 1159 0 
L 581 0 
L 581 3500 
L 1159 3500 
L 1159 2072 
L 2866 2072 
L 2866 3500 
L 3444 3500 
z
M 3953 459 
Q 4347 459 4553 607 
Q 4759 756 4759 1038 
Q 4759 1319 4553 1466 
Q 4347 1613 3953 1613 
L 3444 1613 
L 3444 459 
L 3953 459 
z
" transform="scale(0.015625)"/>
      <path id="DejaVuSans-43e" d="M 1959 3097 
Q 1497 3097 1228 2736 
Q 959 2375 959 1747 
Q 959 1119 1226 758 
Q 1494 397 1959 397 
Q 2419 397 2687 759 
Q 2956 1122 2956 1747 
Q 2956 2369 2687 2733 
Q 2419 3097 1959 3097 
z
M 1959 3584 
Q 2709 3584 3137 3096 
Q 3566 2609 3566 1747 
Q 3566 888 3137 398 
Q 2709 -91 1959 -91 
Q 1206 -91 779 398 
Q 353 888 353 1747 
Q 353 2609 779 3096 
Q 1206 3584 1959 3584 
z
" transform="scale(0.015625)"/>
     </defs>
     <use xlink:href="#DejaVuSans-43c"/>
     <use xlink:href="#DejaVuSans-430" x="75.439453"/>
     <use xlink:href="#DejaVuSans-45a" x="136.71875"/>
     <use xlink:href="#DejaVuSans-430" x="226.5625"/>
     <use xlink:href="#DejaVuSans-20" x="287.841797"/>
     <use xlink:href="#DejaVuSans-43e" x="319.628906"/>
     <use xlink:href="#DejaVuSans-434" x="380.810547"/>
     <use xlink:href="#DejaVuSans-20" x="449.951172"/>
     <use xlink:href="#DejaVuSans-37" x="481.738281"/>
     <use xlink:href="#DejaVuSans-2e" x="545.361328"/>
     <use xlink:href="#DejaVuSans-30" x="577.148438"/>
     <use xlink:href="#DejaVuSans-30" x="640.771484"/>
    </g>
   </g>
   <g id="text_6">
    <!-- Просечна оцена током студирања -->
    <g transform="translate(44.088542 16.318125) scale(0.12 -0.12)">
     <defs>
      <path id="DejaVuSans-41f" d="M 4184 4666 
L 4184 0 
L 3553 0 
L 3553 4134 
L 1259 4134 
L 1259 0 
L 628 0 
L 628 4666 
L 4184 4666 
z
" transform="scale(0.015625)"/>
      <path id="DejaVuSans-440" d="M 1159 525 
L 1159 -1331 
L 581 -1331 
L 581 3500 
L 1159 3500 
L 1159 2969 
Q 1341 3281 1617 3432 
Q 1894 3584 2278 3584 
Q 2916 3584 3314 3078 
Q 3713 2572 3713 1747 
Q 3713 922 3314 415 
Q 2916 -91 2278 -91 
Q 1894 -91 1617 61 
Q 1341 213 1159 525 
z
M 3116 1747 
Q 3116 2381 2855 2742 
Q 2594 3103 2138 3103 
Q 1681 3103 1420 2742 
Q 1159 2381 1159 1747 
Q 1159 1113 1420 752 
Q 1681 391 2138 391 
Q 2594 391 2855 752 
Q 3116 1113 3116 1747 
z
" transform="scale(0.015625)"/>
      <path id="DejaVuSans-447" d="M 2625 0 
L 2625 1472 
L 1553 1472 
Q 1075 1472 756 1769 
Q 469 2038 469 2613 
L 469 3500 
L 1044 3500 
L 1044 2666 
Q 1044 2300 1206 2116 
Q 1372 1931 1697 1931 
L 2625 1931 
L 2625 3500 
L 3200 3500 
L 3200 0 
L 2625 0 
z
" transform="scale(0.015625)"/>
      <path id="DejaVuSans-446" d="M 3603 0 
L 581 0 
L 581 3500 
L 1159 3500 
L 1159 459 
L 3025 459 
L 3025 3500 
L 3603 3500 
L 3603 459 
L 4063 459 
L 4063 -884 
L 3603 -884 
L 3603 0 
z
" transform="scale(0.015625)"/>
      <path id="DejaVuSans-442" d="M 188 3500 
L 3541 3500 
L 3541 3041 
L 2147 3041 
L 2147 0 
L 1581 0 
L 1581 3041 
L 188 3041 
L 188 3500 
z
" transform="scale(0.015625)"/>
      <path id="DejaVuSans-43a" d="M 581 3500 
L 1153 3500 
L 1153 1856 
L 2775 3500 
L 3481 3500 
L 2144 2147 
L 3653 0 
L 3009 0 
L 1769 1766 
L 1153 1141 
L 1153 0 
L 581 0 
L 581 3500 
z
" transform="scale(0.015625)"/>
      <path id="DejaVuSans-443" d="M 2059 -325 
Q 1816 -950 1584 -1140 
Q 1353 -1331 966 -1331 
L 506 -1331 
L 506 -850 
L 844 -850 
Q 1081 -850 1212 -737 
Q 1344 -625 1503 -206 
L 1606 56 
L 191 3500 
L 800 3500 
L 1894 763 
L 2988 3500 
L 3597 3500 
L 2059 -325 
z
" transform="scale(0.015625)"/>
     </defs>
     <use xlink:href="#DejaVuSans-41f"/>
     <use xlink:href="#DejaVuSans-440" x="75.195312"/>
     <use xlink:href="#DejaVuSans-43e" x="138.671875"/>
     <use xlink:href="#DejaVuSans-441" x="199.853516"/>
     <use xlink:href="#DejaVuSans-435" x="254.833984"/>
     <use xlink:href="#DejaVuSans-447" x="316.357422"/>
     <use xlink:href="#DejaVuSans-43d" x="375.439453"/>
     <use xlink:href="#DejaVuSans-430" x="440.820312"/>
     <use xlink:href="#DejaVuSans-20" x="502.099609"/>
     <use xlink:href="#DejaVuSans-43e" x="533.886719"/>
     <use xlink:href="#DejaVuSans-446" x="595.068359"/>
     <use xlink:href="#DejaVuSans-435" x="663.134766"/>
     <use xlink:href="#DejaVuSans-43d" x="724.658203"/>
     <use xlink:href="#DejaVuSans-430" x="790.039062"/>
     <use xlink:href="#DejaVuSans-20" x="851.318359"/>
     <use xlink:href="#DejaVuSans-442" x="883.105469"/>
     <use xlink:href="#DejaVuSans-43e" x="941.357422"/>
     <use xlink:href="#DejaVuSans-43a" x="1002.539062"/>
     <use xlink:href="#DejaVuSans-43e" x="1062.939453"/>
     <use xlink:href="#DejaVuSans-43c" x="1124.121094"/>
     <use xlink:href="#DejaVuSans-20" x="1199.560547"/>
     <use xlink:href="#DejaVuSans-441" x="1231.347656"/>
     <use xlink:href="#DejaVuSans-442" x="1286.328125"/>
     <use xlink:href="#DejaVuSans-443" x="1344.580078"/>
     <use xlink:href="#DejaVuSans-434" x="1403.759766"/>
     <use xlink:href="#DejaVuSans-438" x="1472.900391"/>
     <use xlink:href="#DejaVuSans-440" x="1537.890625"/>
     <use xlink:href="#DejaVuSans-430" x="1601.367188"/>
     <use xlink:href="#DejaVuSans-45a" x="1662.646484"/>
     <use xlink:href="#DejaVuSans-430" x="1752.490234"/>
    </g>
   </g>
  </g>
 </g>
</svg>
