<?xml version="1.0" encoding="utf-8" standalone="no"?>
<!DOCTYPE svg PUBLIC "-//W3C//DTD SVG 1.1//EN"
  "http://www.w3.org/Graphics/SVG/1.1/DTD/svg11.dtd">
<svg xmlns:xlink="http://www.w3.org/1999/xlink" width="567.450698pt" height="295.630125pt" viewBox="0 0 567.450698 295.630125" xmlns="http://www.w3.org/2000/svg" version="1.1">
 <metadata>
  <rdf:RDF xmlns:dc="http://purl.org/dc/elements/1.1/" xmlns:cc="http://creativecommons.org/ns#" xmlns:rdf="http://www.w3.org/1999/02/22-rdf-syntax-ns#">
   <cc:Work>
    <dc:type rdf:resource="http://purl.org/dc/dcmitype/StillImage"/>
    <dc:date>2024-11-20T19:30:33.936623</dc:date>
    <dc:format>image/svg+xml</dc:format>
    <dc:creator>
     <cc:Agent>
      <dc:title>Matplotlib v3.8.4, https://matplotlib.org/</dc:title>
     </cc:Agent>
    </dc:creator>
   </cc:Work>
  </rdf:RDF>
 </metadata>
 <defs>
  <style type="text/css">*{stroke-linejoin: round; stroke-linecap: butt}</style>
 </defs>
 <g id="figure_1">
  <g id="patch_1">
   <path d="M 0 295.630125 
L 567.450698 295.630125 
L 567.450698 0 
L 0 0 
z
" style="fill: #ffffff"/>
  </g>
  <g id="axes_1">
   <g id="patch_2">
    <path d="M 265.596839 48.929325 
C 245.800807 48.929325 226.391797 54.451665 209.560872 64.872933 
C 192.729946 75.294201 179.135211 90.206916 170.31136 107.927597 
C 161.48751 125.648279 157.779566 145.484031 159.606114 165.195616 
C 161.432663 184.907202 168.722283 203.723879 180.652059 219.521453 
L 265.596839 155.374125 
z
" style="fill: #1f77b4"/>
   </g>
   <g id="patch_3">
    <path d="M 180.652059 219.521453 
C 191.242322 233.545227 205.142433 244.730602 221.107141 252.075532 
C 237.071849 259.420462 254.609745 262.698862 272.149687 261.617034 
C 289.689629 260.535205 306.691719 255.126449 321.632815 245.875312 
C 336.573912 236.624174 348.994112 223.815415 357.780747 208.596513 
L 265.596839 155.374125 
z
" style="fill: #ff7f0e"/>
   </g>
   <g id="patch_4">
    <path d="M 357.780747 208.596513 
C 368.794691 189.519796 373.620044 167.48655 371.587563 145.552624 
C 369.555083 123.618697 360.763287 102.847267 346.431534 86.119178 
L 265.596839 155.374125 
z
" style="fill: #2ca02c"/>
   </g>
   <g id="patch_5">
    <path d="M 346.431534 86.119178 
C 336.438914 74.455747 324.039328 65.092017 310.086528 58.672713 
C 296.133728 52.25341 280.955468 48.929322 265.596819 48.929325 
L 265.596839 155.374125 
z
" style="fill: #d62728"/>
   </g>
   <g id="matplotlib.axis_1"/>
   <g id="matplotlib.axis_2"/>
   <g id="text_1">
    <!-- Често присуствујем (50-75%) -->
    <g transform="translate(7.2 105.94232) scale(0.1 -0.1)">
     <defs>
      <path id="DejaVuSans-427" d="M 3125 0 
L 3125 1913 
L 1822 1913 
Q 1241 1913 894 2277 
Q 547 2641 547 3384 
L 547 4666 
L 1175 4666 
L 1175 3434 
Q 1175 2938 1369 2691 
Q 1563 2444 1950 2444 
L 3125 2444 
L 3125 4666 
L 3759 4666 
L 3759 0 
L 3125 0 
z
" transform="scale(0.015625)"/>
      <path id="DejaVuSans-435" d="M 3597 1894 
L 3597 1613 
L 953 1613 
Q 991 1019 1311 708 
Q 1631 397 2203 397 
Q 2534 397 2845 478 
Q 3156 559 3463 722 
L 3463 178 
Q 3153 47 2828 -22 
Q 2503 -91 2169 -91 
Q 1331 -91 842 396 
Q 353 884 353 1716 
Q 353 2575 817 3079 
Q 1281 3584 2069 3584 
Q 2775 3584 3186 3129 
Q 3597 2675 3597 1894 
z
M 3022 2063 
Q 3016 2534 2758 2815 
Q 2500 3097 2075 3097 
Q 1594 3097 1305 2825 
Q 1016 2553 972 2059 
L 3022 2063 
z
" transform="scale(0.015625)"/>
      <path id="DejaVuSans-441" d="M 3122 3366 
L 3122 2828 
Q 2878 2963 2633 3030 
Q 2388 3097 2138 3097 
Q 1578 3097 1268 2742 
Q 959 2388 959 1747 
Q 959 1106 1268 751 
Q 1578 397 2138 397 
Q 2388 397 2633 464 
Q 2878 531 3122 666 
L 3122 134 
Q 2881 22 2623 -34 
Q 2366 -91 2075 -91 
Q 1284 -91 818 406 
Q 353 903 353 1747 
Q 353 2603 823 3093 
Q 1294 3584 2113 3584 
Q 2378 3584 2631 3529 
Q 2884 3475 3122 3366 
z
" transform="scale(0.015625)"/>
      <path id="DejaVuSans-442" d="M 188 3500 
L 3541 3500 
L 3541 3041 
L 2147 3041 
L 2147 0 
L 1581 0 
L 1581 3041 
L 188 3041 
L 188 3500 
z
" transform="scale(0.015625)"/>
      <path id="DejaVuSans-43e" d="M 1959 3097 
Q 1497 3097 1228 2736 
Q 959 2375 959 1747 
Q 959 1119 1226 758 
Q 1494 397 1959 397 
Q 2419 397 2687 759 
Q 2956 1122 2956 1747 
Q 2956 2369 2687 2733 
Q 2419 3097 1959 3097 
z
M 1959 3584 
Q 2709 3584 3137 3096 
Q 3566 2609 3566 1747 
Q 3566 888 3137 398 
Q 2709 -91 1959 -91 
Q 1206 -91 779 398 
Q 353 888 353 1747 
Q 353 2609 779 3096 
Q 1206 3584 1959 3584 
z
" transform="scale(0.015625)"/>
      <path id="DejaVuSans-20" transform="scale(0.015625)"/>
      <path id="DejaVuSans-43f" d="M 3603 3500 
L 3603 0 
L 3025 0 
L 3025 3041 
L 1159 3041 
L 1159 0 
L 581 0 
L 581 3500 
L 3603 3500 
z
" transform="scale(0.015625)"/>
      <path id="DejaVuSans-440" d="M 1159 525 
L 1159 -1331 
L 581 -1331 
L 581 3500 
L 1159 3500 
L 1159 2969 
Q 1341 3281 1617 3432 
Q 1894 3584 2278 3584 
Q 2916 3584 3314 3078 
Q 3713 2572 3713 1747 
Q 3713 922 3314 415 
Q 2916 -91 2278 -91 
Q 1894 -91 1617 61 
Q 1341 213 1159 525 
z
M 3116 1747 
Q 3116 2381 2855 2742 
Q 2594 3103 2138 3103 
Q 1681 3103 1420 2742 
Q 1159 2381 1159 1747 
Q 1159 1113 1420 752 
Q 1681 391 2138 391 
Q 2594 391 2855 752 
Q 3116 1113 3116 1747 
z
" transform="scale(0.015625)"/>
      <path id="DejaVuSans-438" d="M 3578 3500 
L 3578 0 
L 3006 0 
L 3006 2809 
L 1319 0 
L 581 0 
L 581 3500 
L 1153 3500 
L 1153 697 
L 2838 3500 
L 3578 3500 
z
" transform="scale(0.015625)"/>
      <path id="DejaVuSans-443" d="M 2059 -325 
Q 1816 -950 1584 -1140 
Q 1353 -1331 966 -1331 
L 506 -1331 
L 506 -850 
L 844 -850 
Q 1081 -850 1212 -737 
Q 1344 -625 1503 -206 
L 1606 56 
L 191 3500 
L 800 3500 
L 1894 763 
L 2988 3500 
L 3597 3500 
L 2059 -325 
z
" transform="scale(0.015625)"/>
      <path id="DejaVuSans-432" d="M 1156 1613 
L 1156 459 
L 1975 459 
Q 2369 459 2575 607 
Q 2781 756 2781 1038 
Q 2781 1319 2575 1466 
Q 2369 1613 1975 1613 
L 1156 1613 
z
M 1156 3041 
L 1156 2072 
L 1913 2072 
Q 2238 2072 2444 2201 
Q 2650 2331 2650 2563 
Q 2650 2794 2444 2917 
Q 2238 3041 1913 3041 
L 1156 3041 
z
M 581 3500 
L 1950 3500 
Q 2566 3500 2897 3275 
Q 3228 3050 3228 2634 
Q 3228 2313 3059 2123 
Q 2891 1934 2559 1888 
Q 2956 1813 3175 1575 
Q 3394 1338 3394 981 
Q 3394 513 3033 256 
Q 2672 0 2003 0 
L 581 0 
L 581 3500 
z
" transform="scale(0.015625)"/>
      <path id="DejaVuSans-458" d="M 603 3500 
L 1178 3500 
L 1178 -63 
Q 1178 -731 923 -1031 
Q 669 -1331 103 -1331 
L -116 -1331 
L -116 -844 
L 38 -844 
Q 366 -844 484 -692 
Q 603 -541 603 -63 
L 603 3500 
z
M 603 4863 
L 1178 4863 
L 1178 4134 
L 603 4134 
L 603 4863 
z
" transform="scale(0.015625)"/>
      <path id="DejaVuSans-43c" d="M 581 3500 
L 1422 3500 
L 2416 1156 
L 3413 3500 
L 4247 3500 
L 4247 0 
L 3669 0 
L 3669 2950 
L 2703 672 
L 2128 672 
L 1159 2950 
L 1159 0 
L 581 0 
L 581 3500 
z
" transform="scale(0.015625)"/>
      <path id="DejaVuSans-28" d="M 1984 4856 
Q 1566 4138 1362 3434 
Q 1159 2731 1159 2009 
Q 1159 1288 1364 580 
Q 1569 -128 1984 -844 
L 1484 -844 
Q 1016 -109 783 600 
Q 550 1309 550 2009 
Q 550 2706 781 3412 
Q 1013 4119 1484 4856 
L 1984 4856 
z
" transform="scale(0.015625)"/>
      <path id="DejaVuSans-35" d="M 691 4666 
L 3169 4666 
L 3169 4134 
L 1269 4134 
L 1269 2991 
Q 1406 3038 1543 3061 
Q 1681 3084 1819 3084 
Q 2600 3084 3056 2656 
Q 3513 2228 3513 1497 
Q 3513 744 3044 326 
Q 2575 -91 1722 -91 
Q 1428 -91 1123 -41 
Q 819 9 494 109 
L 494 744 
Q 775 591 1075 516 
Q 1375 441 1709 441 
Q 2250 441 2565 725 
Q 2881 1009 2881 1497 
Q 2881 1984 2565 2268 
Q 2250 2553 1709 2553 
Q 1456 2553 1204 2497 
Q 953 2441 691 2322 
L 691 4666 
z
" transform="scale(0.015625)"/>
      <path id="DejaVuSans-30" d="M 2034 4250 
Q 1547 4250 1301 3770 
Q 1056 3291 1056 2328 
Q 1056 1369 1301 889 
Q 1547 409 2034 409 
Q 2525 409 2770 889 
Q 3016 1369 3016 2328 
Q 3016 3291 2770 3770 
Q 2525 4250 2034 4250 
z
M 2034 4750 
Q 2819 4750 3233 4129 
Q 3647 3509 3647 2328 
Q 3647 1150 3233 529 
Q 2819 -91 2034 -91 
Q 1250 -91 836 529 
Q 422 1150 422 2328 
Q 422 3509 836 4129 
Q 1250 4750 2034 4750 
z
" transform="scale(0.015625)"/>
      <path id="DejaVuSans-2d" d="M 313 2009 
L 1997 2009 
L 1997 1497 
L 313 1497 
L 313 2009 
z
" transform="scale(0.015625)"/>
      <path id="DejaVuSans-37" d="M 525 4666 
L 3525 4666 
L 3525 4397 
L 1831 0 
L 1172 0 
L 2766 4134 
L 525 4134 
L 525 4666 
z
" transform="scale(0.015625)"/>
      <path id="DejaVuSans-25" d="M 4653 2053 
Q 4381 2053 4226 1822 
Q 4072 1591 4072 1178 
Q 4072 772 4226 539 
Q 4381 306 4653 306 
Q 4919 306 5073 539 
Q 5228 772 5228 1178 
Q 5228 1588 5073 1820 
Q 4919 2053 4653 2053 
z
M 4653 2450 
Q 5147 2450 5437 2106 
Q 5728 1763 5728 1178 
Q 5728 594 5436 251 
Q 5144 -91 4653 -91 
Q 4153 -91 3862 251 
Q 3572 594 3572 1178 
Q 3572 1766 3864 2108 
Q 4156 2450 4653 2450 
z
M 1428 4353 
Q 1159 4353 1004 4120 
Q 850 3888 850 3481 
Q 850 3069 1003 2837 
Q 1156 2606 1428 2606 
Q 1700 2606 1854 2837 
Q 2009 3069 2009 3481 
Q 2009 3884 1853 4118 
Q 1697 4353 1428 4353 
z
M 4250 4750 
L 4750 4750 
L 1831 -91 
L 1331 -91 
L 4250 4750 
z
M 1428 4750 
Q 1922 4750 2215 4408 
Q 2509 4066 2509 3481 
Q 2509 2891 2217 2550 
Q 1925 2209 1428 2209 
Q 931 2209 642 2551 
Q 353 2894 353 3481 
Q 353 4063 643 4406 
Q 934 4750 1428 4750 
z
" transform="scale(0.015625)"/>
      <path id="DejaVuSans-29" d="M 513 4856 
L 1013 4856 
Q 1481 4119 1714 3412 
Q 1947 2706 1947 2009 
Q 1947 1309 1714 600 
Q 1481 -109 1013 -844 
L 513 -844 
Q 928 -128 1133 580 
Q 1338 1288 1338 2009 
Q 1338 2731 1133 3434 
Q 928 4138 513 4856 
z
" transform="scale(0.015625)"/>
     </defs>
     <use xlink:href="#DejaVuSans-427"/>
     <use xlink:href="#DejaVuSans-435" x="68.554688"/>
     <use xlink:href="#DejaVuSans-441" x="130.078125"/>
     <use xlink:href="#DejaVuSans-442" x="185.058594"/>
     <use xlink:href="#DejaVuSans-43e" x="243.310547"/>
     <use xlink:href="#DejaVuSans-20" x="304.492188"/>
     <use xlink:href="#DejaVuSans-43f" x="336.279297"/>
     <use xlink:href="#DejaVuSans-440" x="401.660156"/>
     <use xlink:href="#DejaVuSans-438" x="465.136719"/>
     <use xlink:href="#DejaVuSans-441" x="530.126953"/>
     <use xlink:href="#DejaVuSans-443" x="585.107422"/>
     <use xlink:href="#DejaVuSans-441" x="644.287109"/>
     <use xlink:href="#DejaVuSans-442" x="699.267578"/>
     <use xlink:href="#DejaVuSans-432" x="757.519531"/>
     <use xlink:href="#DejaVuSans-443" x="816.455078"/>
     <use xlink:href="#DejaVuSans-458" x="875.634766"/>
     <use xlink:href="#DejaVuSans-435" x="903.417969"/>
     <use xlink:href="#DejaVuSans-43c" x="964.941406"/>
     <use xlink:href="#DejaVuSans-20" x="1040.380859"/>
     <use xlink:href="#DejaVuSans-28" x="1072.167969"/>
     <use xlink:href="#DejaVuSans-35" x="1111.181641"/>
     <use xlink:href="#DejaVuSans-30" x="1174.804688"/>
     <use xlink:href="#DejaVuSans-2d" x="1238.427734"/>
     <use xlink:href="#DejaVuSans-37" x="1274.511719"/>
     <use xlink:href="#DejaVuSans-35" x="1338.134766"/>
     <use xlink:href="#DejaVuSans-25" x="1401.757812"/>
     <use xlink:href="#DejaVuSans-29" x="1496.777344"/>
    </g>
   </g>
   <g id="text_2">
    <!-- 35.3% -->
    <g transform="translate(192.541958 129.665583) scale(0.1 -0.1)">
     <defs>
      <path id="DejaVuSans-33" d="M 2597 2516 
Q 3050 2419 3304 2112 
Q 3559 1806 3559 1356 
Q 3559 666 3084 287 
Q 2609 -91 1734 -91 
Q 1441 -91 1130 -33 
Q 819 25 488 141 
L 488 750 
Q 750 597 1062 519 
Q 1375 441 1716 441 
Q 2309 441 2620 675 
Q 2931 909 2931 1356 
Q 2931 1769 2642 2001 
Q 2353 2234 1838 2234 
L 1294 2234 
L 1294 2753 
L 1863 2753 
Q 2328 2753 2575 2939 
Q 2822 3125 2822 3475 
Q 2822 3834 2567 4026 
Q 2313 4219 1838 4219 
Q 1578 4219 1281 4162 
Q 984 4106 628 3988 
L 628 4550 
Q 988 4650 1302 4700 
Q 1616 4750 1894 4750 
Q 2613 4750 3031 4423 
Q 3450 4097 3450 3541 
Q 3450 3153 3228 2886 
Q 3006 2619 2597 2516 
z
" transform="scale(0.015625)"/>
      <path id="DejaVuSans-2e" d="M 684 794 
L 1344 794 
L 1344 0 
L 684 0 
L 684 794 
z
" transform="scale(0.015625)"/>
     </defs>
     <use xlink:href="#DejaVuSans-33"/>
     <use xlink:href="#DejaVuSans-35" x="63.623047"/>
     <use xlink:href="#DejaVuSans-2e" x="127.246094"/>
     <use xlink:href="#DejaVuSans-33" x="159.033203"/>
     <use xlink:href="#DejaVuSans-25" x="222.65625"/>
    </g>
   </g>
   <g id="text_3">
    <!-- Ретко присуствујем (мање од 50%) -->
    <g transform="translate(272.804972 275.000699) scale(0.1 -0.1)">
     <defs>
      <path id="DejaVuSans-420" d="M 1259 4147 
L 1259 2394 
L 2053 2394 
Q 2494 2394 2734 2622 
Q 2975 2850 2975 3272 
Q 2975 3691 2734 3919 
Q 2494 4147 2053 4147 
L 1259 4147 
z
M 628 4666 
L 2053 4666 
Q 2838 4666 3239 4311 
Q 3641 3956 3641 3272 
Q 3641 2581 3239 2228 
Q 2838 1875 2053 1875 
L 1259 1875 
L 1259 0 
L 628 0 
L 628 4666 
z
" transform="scale(0.015625)"/>
      <path id="DejaVuSans-43a" d="M 581 3500 
L 1153 3500 
L 1153 1856 
L 2775 3500 
L 3481 3500 
L 2144 2147 
L 3653 0 
L 3009 0 
L 1769 1766 
L 1153 1141 
L 1153 0 
L 581 0 
L 581 3500 
z
" transform="scale(0.015625)"/>
      <path id="DejaVuSans-430" d="M 2194 1759 
Q 1497 1759 1228 1600 
Q 959 1441 959 1056 
Q 959 750 1161 570 
Q 1363 391 1709 391 
Q 2188 391 2477 730 
Q 2766 1069 2766 1631 
L 2766 1759 
L 2194 1759 
z
M 3341 1997 
L 3341 0 
L 2766 0 
L 2766 531 
Q 2569 213 2275 61 
Q 1981 -91 1556 -91 
Q 1019 -91 701 211 
Q 384 513 384 1019 
Q 384 1609 779 1909 
Q 1175 2209 1959 2209 
L 2766 2209 
L 2766 2266 
Q 2766 2663 2505 2880 
Q 2244 3097 1772 3097 
Q 1472 3097 1187 3025 
Q 903 2953 641 2809 
L 641 3341 
Q 956 3463 1253 3523 
Q 1550 3584 1831 3584 
Q 2591 3584 2966 3190 
Q 3341 2797 3341 1997 
z
" transform="scale(0.015625)"/>
      <path id="DejaVuSans-45a" d="M 3444 3500 
L 3444 2072 
L 3978 2072 
Q 4647 2072 5009 1817 
Q 5372 1563 5372 1038 
Q 5372 513 5011 256 
Q 4650 0 3981 0 
L 2866 0 
L 2866 1613 
L 1159 1613 
L 1159 0 
L 581 0 
L 581 3500 
L 1159 3500 
L 1159 2072 
L 2866 2072 
L 2866 3500 
L 3444 3500 
z
M 3953 459 
Q 4347 459 4553 607 
Q 4759 756 4759 1038 
Q 4759 1319 4553 1466 
Q 4347 1613 3953 1613 
L 3444 1613 
L 3444 459 
L 3953 459 
z
" transform="scale(0.015625)"/>
      <path id="DejaVuSans-434" d="M 1384 459 
L 3053 459 
L 3053 3041 
L 1844 3041 
L 1844 2603 
Q 1844 1316 1475 628 
L 1384 459 
z
M 550 459 
Q 834 584 959 850 
Q 1266 1509 1266 2838 
L 1266 3500 
L 3631 3500 
L 3631 459 
L 4091 459 
L 4091 -884 
L 3631 -884 
L 3631 0 
L 794 0 
L 794 -884 
L 334 -884 
L 334 459 
L 550 459 
z
" transform="scale(0.015625)"/>
     </defs>
     <use xlink:href="#DejaVuSans-420"/>
     <use xlink:href="#DejaVuSans-435" x="60.302734"/>
     <use xlink:href="#DejaVuSans-442" x="121.826172"/>
     <use xlink:href="#DejaVuSans-43a" x="180.078125"/>
     <use xlink:href="#DejaVuSans-43e" x="240.478516"/>
     <use xlink:href="#DejaVuSans-20" x="301.660156"/>
     <use xlink:href="#DejaVuSans-43f" x="333.447266"/>
     <use xlink:href="#DejaVuSans-440" x="398.828125"/>
     <use xlink:href="#DejaVuSans-438" x="462.304688"/>
     <use xlink:href="#DejaVuSans-441" x="527.294922"/>
     <use xlink:href="#DejaVuSans-443" x="582.275391"/>
     <use xlink:href="#DejaVuSans-441" x="641.455078"/>
     <use xlink:href="#DejaVuSans-442" x="696.435547"/>
     <use xlink:href="#DejaVuSans-432" x="754.6875"/>
     <use xlink:href="#DejaVuSans-443" x="813.623047"/>
     <use xlink:href="#DejaVuSans-458" x="872.802734"/>
     <use xlink:href="#DejaVuSans-435" x="900.585938"/>
     <use xlink:href="#DejaVuSans-43c" x="962.109375"/>
     <use xlink:href="#DejaVuSans-20" x="1037.548828"/>
     <use xlink:href="#DejaVuSans-28" x="1069.335938"/>
     <use xlink:href="#DejaVuSans-43c" x="1108.349609"/>
     <use xlink:href="#DejaVuSans-430" x="1183.789062"/>
     <use xlink:href="#DejaVuSans-45a" x="1245.068359"/>
     <use xlink:href="#DejaVuSans-435" x="1334.912109"/>
     <use xlink:href="#DejaVuSans-20" x="1396.435547"/>
     <use xlink:href="#DejaVuSans-43e" x="1428.222656"/>
     <use xlink:href="#DejaVuSans-434" x="1489.404297"/>
     <use xlink:href="#DejaVuSans-20" x="1558.544922"/>
     <use xlink:href="#DejaVuSans-35" x="1590.332031"/>
     <use xlink:href="#DejaVuSans-30" x="1653.955078"/>
     <use xlink:href="#DejaVuSans-25" x="1717.578125"/>
     <use xlink:href="#DejaVuSans-29" x="1812.597656"/>
    </g>
   </g>
   <g id="text_4">
    <!-- 31.4% -->
    <g transform="translate(253.644954 221.879245) scale(0.1 -0.1)">
     <defs>
      <path id="DejaVuSans-31" d="M 794 531 
L 1825 531 
L 1825 4091 
L 703 3866 
L 703 4441 
L 1819 4666 
L 2450 4666 
L 2450 531 
L 3481 531 
L 3481 0 
L 794 0 
L 794 531 
z
" transform="scale(0.015625)"/>
      <path id="DejaVuSans-34" d="M 2419 4116 
L 825 1625 
L 2419 1625 
L 2419 4116 
z
M 2253 4666 
L 3047 4666 
L 3047 1625 
L 3713 1625 
L 3713 1100 
L 3047 1100 
L 3047 0 
L 2419 0 
L 2419 1100 
L 313 1100 
L 313 1709 
L 2253 4666 
z
" transform="scale(0.015625)"/>
     </defs>
     <use xlink:href="#DejaVuSans-33"/>
     <use xlink:href="#DejaVuSans-31" x="63.623047"/>
     <use xlink:href="#DejaVuSans-2e" x="127.246094"/>
     <use xlink:href="#DejaVuSans-34" x="159.033203"/>
     <use xlink:href="#DejaVuSans-25" x="222.65625"/>
    </g>
   </g>
   <g id="text_5">
    <!-- Увек присуствујем (више од 75%) -->
    <g transform="translate(382.186636 147.329848) scale(0.1 -0.1)">
     <defs>
      <path id="DejaVuSans-423" d="M 2047 566 
Q 1981 409 1881 291 
Q 1634 0 850 0 
L 609 0 
L 609 531 
L 806 531 
Q 1178 531 1322 616 
Q 1409 669 1466 800 
L 1606 1131 
L 109 4666 
L 788 4666 
L 1947 1928 
L 3113 4666 
L 3791 4666 
L 2047 566 
z
" transform="scale(0.015625)"/>
      <path id="DejaVuSans-448" d="M 3216 459 
L 4697 459 
L 4697 3500 
L 5275 3500 
L 5275 0 
L 581 0 
L 581 3500 
L 1159 3500 
L 1159 459 
L 2638 459 
L 2638 3500 
L 3216 3500 
L 3216 459 
z
" transform="scale(0.015625)"/>
     </defs>
     <use xlink:href="#DejaVuSans-423"/>
     <use xlink:href="#DejaVuSans-432" x="60.9375"/>
     <use xlink:href="#DejaVuSans-435" x="119.873047"/>
     <use xlink:href="#DejaVuSans-43a" x="181.396484"/>
     <use xlink:href="#DejaVuSans-20" x="241.796875"/>
     <use xlink:href="#DejaVuSans-43f" x="273.583984"/>
     <use xlink:href="#DejaVuSans-440" x="338.964844"/>
     <use xlink:href="#DejaVuSans-438" x="402.441406"/>
     <use xlink:href="#DejaVuSans-441" x="467.431641"/>
     <use xlink:href="#DejaVuSans-443" x="522.412109"/>
     <use xlink:href="#DejaVuSans-441" x="581.591797"/>
     <use xlink:href="#DejaVuSans-442" x="636.572266"/>
     <use xlink:href="#DejaVuSans-432" x="694.824219"/>
     <use xlink:href="#DejaVuSans-443" x="753.759766"/>
     <use xlink:href="#DejaVuSans-458" x="812.939453"/>
     <use xlink:href="#DejaVuSans-435" x="840.722656"/>
     <use xlink:href="#DejaVuSans-43c" x="902.246094"/>
     <use xlink:href="#DejaVuSans-20" x="977.685547"/>
     <use xlink:href="#DejaVuSans-28" x="1009.472656"/>
     <use xlink:href="#DejaVuSans-432" x="1048.486328"/>
     <use xlink:href="#DejaVuSans-438" x="1107.421875"/>
     <use xlink:href="#DejaVuSans-448" x="1172.412109"/>
     <use xlink:href="#DejaVuSans-435" x="1263.916016"/>
     <use xlink:href="#DejaVuSans-20" x="1325.439453"/>
     <use xlink:href="#DejaVuSans-43e" x="1357.226562"/>
     <use xlink:href="#DejaVuSans-434" x="1418.408203"/>
     <use xlink:href="#DejaVuSans-20" x="1487.548828"/>
     <use xlink:href="#DejaVuSans-37" x="1519.335938"/>
     <use xlink:href="#DejaVuSans-35" x="1582.958984"/>
     <use xlink:href="#DejaVuSans-25" x="1646.582031"/>
     <use xlink:href="#DejaVuSans-29" x="1741.601562"/>
    </g>
   </g>
   <g id="text_6">
    <!-- 19.6% -->
    <g transform="translate(313.30768 152.240599) scale(0.1 -0.1)">
     <defs>
      <path id="DejaVuSans-39" d="M 703 97 
L 703 672 
Q 941 559 1184 500 
Q 1428 441 1663 441 
Q 2288 441 2617 861 
Q 2947 1281 2994 2138 
Q 2813 1869 2534 1725 
Q 2256 1581 1919 1581 
Q 1219 1581 811 2004 
Q 403 2428 403 3163 
Q 403 3881 828 4315 
Q 1253 4750 1959 4750 
Q 2769 4750 3195 4129 
Q 3622 3509 3622 2328 
Q 3622 1225 3098 567 
Q 2575 -91 1691 -91 
Q 1453 -91 1209 -44 
Q 966 3 703 97 
z
M 1959 2075 
Q 2384 2075 2632 2365 
Q 2881 2656 2881 3163 
Q 2881 3666 2632 3958 
Q 2384 4250 1959 4250 
Q 1534 4250 1286 3958 
Q 1038 3666 1038 3163 
Q 1038 2656 1286 2365 
Q 1534 2075 1959 2075 
z
" transform="scale(0.015625)"/>
      <path id="DejaVuSans-36" d="M 2113 2584 
Q 1688 2584 1439 2293 
Q 1191 2003 1191 1497 
Q 1191 994 1439 701 
Q 1688 409 2113 409 
Q 2538 409 2786 701 
Q 3034 994 3034 1497 
Q 3034 2003 2786 2293 
Q 2538 2584 2113 2584 
z
M 3366 4563 
L 3366 3988 
Q 3128 4100 2886 4159 
Q 2644 4219 2406 4219 
Q 1781 4219 1451 3797 
Q 1122 3375 1075 2522 
Q 1259 2794 1537 2939 
Q 1816 3084 2150 3084 
Q 2853 3084 3261 2657 
Q 3669 2231 3669 1497 
Q 3669 778 3244 343 
Q 2819 -91 2113 -91 
Q 1303 -91 875 529 
Q 447 1150 447 2328 
Q 447 3434 972 4092 
Q 1497 4750 2381 4750 
Q 2619 4750 2861 4703 
Q 3103 4656 3366 4563 
z
" transform="scale(0.015625)"/>
     </defs>
     <use xlink:href="#DejaVuSans-31"/>
     <use xlink:href="#DejaVuSans-39" x="63.623047"/>
     <use xlink:href="#DejaVuSans-2e" x="127.246094"/>
     <use xlink:href="#DejaVuSans-36" x="159.033203"/>
     <use xlink:href="#DejaVuSans-25" x="222.65625"/>
    </g>
   </g>
   <g id="text_7">
    <!-- Уопште не присуствујем -->
    <g transform="translate(314.535497 51.761947) scale(0.1 -0.1)">
     <defs>
      <path id="DejaVuSans-43d" d="M 581 3500 
L 1159 3500 
L 1159 2072 
L 3025 2072 
L 3025 3500 
L 3603 3500 
L 3603 0 
L 3025 0 
L 3025 1613 
L 1159 1613 
L 1159 0 
L 581 0 
L 581 3500 
z
" transform="scale(0.015625)"/>
     </defs>
     <use xlink:href="#DejaVuSans-423"/>
     <use xlink:href="#DejaVuSans-43e" x="60.9375"/>
     <use xlink:href="#DejaVuSans-43f" x="122.119141"/>
     <use xlink:href="#DejaVuSans-448" x="187.5"/>
     <use xlink:href="#DejaVuSans-442" x="279.003906"/>
     <use xlink:href="#DejaVuSans-435" x="337.255859"/>
     <use xlink:href="#DejaVuSans-20" x="398.779297"/>
     <use xlink:href="#DejaVuSans-43d" x="430.566406"/>
     <use xlink:href="#DejaVuSans-435" x="495.947266"/>
     <use xlink:href="#DejaVuSans-20" x="557.470703"/>
     <use xlink:href="#DejaVuSans-43f" x="589.257812"/>
     <use xlink:href="#DejaVuSans-440" x="654.638672"/>
     <use xlink:href="#DejaVuSans-438" x="718.115234"/>
     <use xlink:href="#DejaVuSans-441" x="783.105469"/>
     <use xlink:href="#DejaVuSans-443" x="838.085938"/>
     <use xlink:href="#DejaVuSans-441" x="897.265625"/>
     <use xlink:href="#DejaVuSans-442" x="952.246094"/>
     <use xlink:href="#DejaVuSans-432" x="1010.498047"/>
     <use xlink:href="#DejaVuSans-443" x="1069.433594"/>
     <use xlink:href="#DejaVuSans-458" x="1128.613281"/>
     <use xlink:href="#DejaVuSans-435" x="1156.396484"/>
     <use xlink:href="#DejaVuSans-43c" x="1217.919922"/>
    </g>
   </g>
   <g id="text_8">
    <!-- 13.7% -->
    <g transform="translate(276.407059 100.112653) scale(0.1 -0.1)">
     <use xlink:href="#DejaVuSans-31"/>
     <use xlink:href="#DejaVuSans-33" x="63.623047"/>
     <use xlink:href="#DejaVuSans-2e" x="127.246094"/>
     <use xlink:href="#DejaVuSans-37" x="159.033203"/>
     <use xlink:href="#DejaVuSans-25" x="222.65625"/>
    </g>
   </g>
   <g id="text_9">
    <!-- Колико често присуствујете предавањима? -->
    <g transform="translate(127.165589 16.318125) scale(0.12 -0.12)">
     <defs>
      <path id="DejaVuSans-41a" d="M 628 4666 
L 1259 4666 
L 1259 2359 
L 3516 4666 
L 4325 4666 
L 2522 2822 
L 4419 0 
L 3731 0 
L 2113 2403 
L 1259 1531 
L 1259 0 
L 628 0 
L 628 4666 
z
" transform="scale(0.015625)"/>
      <path id="DejaVuSans-43b" d="M 238 0 
L 238 478 
Q 806 566 981 959 
Q 1194 1513 1194 2928 
L 1194 3500 
L 3559 3500 
L 3559 0 
L 2984 0 
L 2984 3041 
L 1769 3041 
L 1769 2694 
Q 1769 1344 1494 738 
Q 1200 91 238 0 
z
" transform="scale(0.015625)"/>
      <path id="DejaVuSans-447" d="M 2625 0 
L 2625 1472 
L 1553 1472 
Q 1075 1472 756 1769 
Q 469 2038 469 2613 
L 469 3500 
L 1044 3500 
L 1044 2666 
Q 1044 2300 1206 2116 
Q 1372 1931 1697 1931 
L 2625 1931 
L 2625 3500 
L 3200 3500 
L 3200 0 
L 2625 0 
z
" transform="scale(0.015625)"/>
      <path id="DejaVuSans-3f" d="M 1222 794 
L 1856 794 
L 1856 0 
L 1222 0 
L 1222 794 
z
M 1838 1253 
L 1241 1253 
L 1241 1734 
Q 1241 2050 1328 2253 
Q 1416 2456 1697 2725 
L 1978 3003 
Q 2156 3169 2236 3316 
Q 2316 3463 2316 3616 
Q 2316 3894 2111 4066 
Q 1906 4238 1569 4238 
Q 1322 4238 1042 4128 
Q 763 4019 459 3809 
L 459 4397 
Q 753 4575 1054 4662 
Q 1356 4750 1678 4750 
Q 2253 4750 2601 4447 
Q 2950 4144 2950 3647 
Q 2950 3409 2837 3195 
Q 2725 2981 2444 2713 
L 2169 2444 
Q 2022 2297 1961 2214 
Q 1900 2131 1875 2053 
Q 1856 1988 1847 1894 
Q 1838 1800 1838 1638 
L 1838 1253 
z
" transform="scale(0.015625)"/>
     </defs>
     <use xlink:href="#DejaVuSans-41a"/>
     <use xlink:href="#DejaVuSans-43e" x="70.996094"/>
     <use xlink:href="#DejaVuSans-43b" x="132.177734"/>
     <use xlink:href="#DejaVuSans-438" x="196.09375"/>
     <use xlink:href="#DejaVuSans-43a" x="261.083984"/>
     <use xlink:href="#DejaVuSans-43e" x="321.484375"/>
     <use xlink:href="#DejaVuSans-20" x="382.666016"/>
     <use xlink:href="#DejaVuSans-447" x="414.453125"/>
     <use xlink:href="#DejaVuSans-435" x="473.535156"/>
     <use xlink:href="#DejaVuSans-441" x="535.058594"/>
     <use xlink:href="#DejaVuSans-442" x="590.039062"/>
     <use xlink:href="#DejaVuSans-43e" x="648.291016"/>
     <use xlink:href="#DejaVuSans-20" x="709.472656"/>
     <use xlink:href="#DejaVuSans-43f" x="741.259766"/>
     <use xlink:href="#DejaVuSans-440" x="806.640625"/>
     <use xlink:href="#DejaVuSans-438" x="870.117188"/>
     <use xlink:href="#DejaVuSans-441" x="935.107422"/>
     <use xlink:href="#DejaVuSans-443" x="990.087891"/>
     <use xlink:href="#DejaVuSans-441" x="1049.267578"/>
     <use xlink:href="#DejaVuSans-442" x="1104.248047"/>
     <use xlink:href="#DejaVuSans-432" x="1162.5"/>
     <use xlink:href="#DejaVuSans-443" x="1221.435547"/>
     <use xlink:href="#DejaVuSans-458" x="1280.615234"/>
     <use xlink:href="#DejaVuSans-435" x="1308.398438"/>
     <use xlink:href="#DejaVuSans-442" x="1369.921875"/>
     <use xlink:href="#DejaVuSans-435" x="1428.173828"/>
     <use xlink:href="#DejaVuSans-20" x="1489.697266"/>
     <use xlink:href="#DejaVuSans-43f" x="1521.484375"/>
     <use xlink:href="#DejaVuSans-440" x="1586.865234"/>
     <use xlink:href="#DejaVuSans-435" x="1650.341797"/>
     <use xlink:href="#DejaVuSans-434" x="1711.865234"/>
     <use xlink:href="#DejaVuSans-430" x="1781.005859"/>
     <use xlink:href="#DejaVuSans-432" x="1842.285156"/>
     <use xlink:href="#DejaVuSans-430" x="1901.220703"/>
     <use xlink:href="#DejaVuSans-45a" x="1962.5"/>
     <use xlink:href="#DejaVuSans-438" x="2052.34375"/>
     <use xlink:href="#DejaVuSans-43c" x="2117.333984"/>
     <use xlink:href="#DejaVuSans-430" x="2192.773438"/>
     <use xlink:href="#DejaVuSans-3f" x="2254.052734"/>
    </g>
   </g>
  </g>
 </g>
</svg>
