<?xml version="1.0" encoding="utf-8" standalone="no"?>
<!DOCTYPE svg PUBLIC "-//W3C//DTD SVG 1.1//EN"
  "http://www.w3.org/Graphics/SVG/1.1/DTD/svg11.dtd">
<svg xmlns:xlink="http://www.w3.org/1999/xlink" width="464.088681pt" height="295.630125pt" viewBox="0 0 464.088681 295.630125" xmlns="http://www.w3.org/2000/svg" version="1.1">
 <metadata>
  <rdf:RDF xmlns:dc="http://purl.org/dc/elements/1.1/" xmlns:cc="http://creativecommons.org/ns#" xmlns:rdf="http://www.w3.org/1999/02/22-rdf-syntax-ns#">
   <cc:Work>
    <dc:type rdf:resource="http://purl.org/dc/dcmitype/StillImage"/>
    <dc:date>2024-11-20T19:30:33.749750</dc:date>
    <dc:format>image/svg+xml</dc:format>
    <dc:creator>
     <cc:Agent>
      <dc:title>Matplotlib v3.8.4, https://matplotlib.org/</dc:title>
     </cc:Agent>
    </dc:creator>
   </cc:Work>
  </rdf:RDF>
 </metadata>
 <defs>
  <style type="text/css">*{stroke-linejoin: round; stroke-linecap: butt}</style>
 </defs>
 <g id="figure_1">
  <g id="patch_1">
   <path d="M 0 295.630125 
L 464.088681 295.630125 
L 464.088681 0 
L 0 0 
z
" style="fill: #ffffff"/>
  </g>
  <g id="axes_1">
   <g id="patch_2">
    <path d="M 298.424093 155.374125 
C 298.424093 142.773816 296.186768 130.273018 291.816484 118.454878 
C 287.446201 106.636739 281.01199 95.687927 272.813998 86.11919 
C 264.616006 76.550453 254.783722 68.512931 243.775809 62.381564 
C 232.767897 56.250197 220.758227 52.121831 208.307036 50.189049 
C 195.855846 48.256267 183.159802 48.549597 170.81116 51.055356 
C 158.462517 53.561115 146.656325 58.239724 135.943326 64.872933 
C 125.230327 71.506141 115.779735 79.989176 108.032408 89.926314 
C 100.285081 99.863453 94.363389 111.097737 90.543572 123.105101 
C 86.723755 135.112465 85.066147 147.703252 85.648073 160.290116 
C 86.229999 172.876981 89.042268 185.261112 93.953691 196.864807 
C 98.865114 208.468501 105.798114 219.108476 114.429276 228.288391 
C 123.060438 237.468306 133.253431 245.043163 144.532766 250.659604 
C 155.812101 256.276045 167.999618 259.845357 180.526785 261.201038 
C 193.053953 262.556719 205.722902 261.677354 217.942644 258.603965 
C 230.162385 255.530576 241.739906 250.311708 252.135129 243.190814 
C 262.530352 236.06992 271.579084 227.159476 278.859213 216.875142 
L 191.979293 155.374125 
z
" style="fill: #1f77b4"/>
   </g>
   <g id="patch_3">
    <path d="M 278.859213 216.875142 
C 283.916865 209.730407 288.073918 201.98899 291.236115 193.826417 
C 294.398312 185.663845 296.541571 177.14228 297.617297 168.454939 
L 191.979293 155.374125 
z
" style="fill: #ff7f0e"/>
   </g>
   <g id="patch_4">
    <path d="M 297.617297 168.454939 
C 297.88591 166.285672 298.087641 164.108646 298.222203 161.926957 
C 298.356765 159.745269 298.424093 157.559953 298.424093 155.374119 
L 191.979293 155.374125 
z
" style="fill: #2ca02c"/>
   </g>
   <g id="matplotlib.axis_1"/>
   <g id="matplotlib.axis_2"/>
   <g id="text_1">
    <!-- Информатика -->
    <g transform="translate(7.2 122.637574) scale(0.1 -0.1)">
     <defs>
      <path id="DejaVuSans-418" d="M 4159 4666 
L 4159 0 
L 3547 0 
L 3547 3903 
L 1478 0 
L 628 0 
L 628 4666 
L 1241 4666 
L 1241 763 
L 3309 4666 
L 4159 4666 
z
" transform="scale(0.015625)"/>
      <path id="DejaVuSans-43d" d="M 581 3500 
L 1159 3500 
L 1159 2072 
L 3025 2072 
L 3025 3500 
L 3603 3500 
L 3603 0 
L 3025 0 
L 3025 1613 
L 1159 1613 
L 1159 0 
L 581 0 
L 581 3500 
z
" transform="scale(0.015625)"/>
      <path id="DejaVuSans-444" d="M 947 1747 
Q 947 1013 1173 702 
Q 1400 391 1784 391 
Q 2091 391 2447 916 
L 2447 2578 
Q 2091 3103 1784 3103 
Q 1400 3103 1173 2792 
Q 947 2481 947 1747 
z
M 2447 -1331 
L 2447 447 
Q 2269 153 2064 31 
Q 1859 -91 1600 -91 
Q 1078 -91 714 392 
Q 350 875 350 1734 
Q 350 2594 714 3089 
Q 1078 3584 1600 3584 
Q 1859 3584 2064 3465 
Q 2269 3347 2447 3053 
L 2447 4666 
L 3025 4666 
L 3025 3053 
Q 3203 3347 3408 3465 
Q 3613 3584 3872 3584 
Q 4394 3584 4758 3089 
Q 5122 2594 5122 1734 
Q 5122 875 4758 392 
Q 4394 -91 3872 -91 
Q 3613 -91 3408 31 
Q 3203 153 3025 447 
L 3025 -1331 
L 2447 -1331 
z
M 4525 1747 
Q 4525 2481 4298 2792 
Q 4072 3103 3688 3103 
Q 3381 3103 3025 2578 
L 3025 916 
Q 3381 391 3688 391 
Q 4072 391 4298 702 
Q 4525 1013 4525 1747 
z
" transform="scale(0.015625)"/>
      <path id="DejaVuSans-43e" d="M 1959 3097 
Q 1497 3097 1228 2736 
Q 959 2375 959 1747 
Q 959 1119 1226 758 
Q 1494 397 1959 397 
Q 2419 397 2687 759 
Q 2956 1122 2956 1747 
Q 2956 2369 2687 2733 
Q 2419 3097 1959 3097 
z
M 1959 3584 
Q 2709 3584 3137 3096 
Q 3566 2609 3566 1747 
Q 3566 888 3137 398 
Q 2709 -91 1959 -91 
Q 1206 -91 779 398 
Q 353 888 353 1747 
Q 353 2609 779 3096 
Q 1206 3584 1959 3584 
z
" transform="scale(0.015625)"/>
      <path id="DejaVuSans-440" d="M 1159 525 
L 1159 -1331 
L 581 -1331 
L 581 3500 
L 1159 3500 
L 1159 2969 
Q 1341 3281 1617 3432 
Q 1894 3584 2278 3584 
Q 2916 3584 3314 3078 
Q 3713 2572 3713 1747 
Q 3713 922 3314 415 
Q 2916 -91 2278 -91 
Q 1894 -91 1617 61 
Q 1341 213 1159 525 
z
M 3116 1747 
Q 3116 2381 2855 2742 
Q 2594 3103 2138 3103 
Q 1681 3103 1420 2742 
Q 1159 2381 1159 1747 
Q 1159 1113 1420 752 
Q 1681 391 2138 391 
Q 2594 391 2855 752 
Q 3116 1113 3116 1747 
z
" transform="scale(0.015625)"/>
      <path id="DejaVuSans-43c" d="M 581 3500 
L 1422 3500 
L 2416 1156 
L 3413 3500 
L 4247 3500 
L 4247 0 
L 3669 0 
L 3669 2950 
L 2703 672 
L 2128 672 
L 1159 2950 
L 1159 0 
L 581 0 
L 581 3500 
z
" transform="scale(0.015625)"/>
      <path id="DejaVuSans-430" d="M 2194 1759 
Q 1497 1759 1228 1600 
Q 959 1441 959 1056 
Q 959 750 1161 570 
Q 1363 391 1709 391 
Q 2188 391 2477 730 
Q 2766 1069 2766 1631 
L 2766 1759 
L 2194 1759 
z
M 3341 1997 
L 3341 0 
L 2766 0 
L 2766 531 
Q 2569 213 2275 61 
Q 1981 -91 1556 -91 
Q 1019 -91 701 211 
Q 384 513 384 1019 
Q 384 1609 779 1909 
Q 1175 2209 1959 2209 
L 2766 2209 
L 2766 2266 
Q 2766 2663 2505 2880 
Q 2244 3097 1772 3097 
Q 1472 3097 1187 3025 
Q 903 2953 641 2809 
L 641 3341 
Q 956 3463 1253 3523 
Q 1550 3584 1831 3584 
Q 2591 3584 2966 3190 
Q 3341 2797 3341 1997 
z
" transform="scale(0.015625)"/>
      <path id="DejaVuSans-442" d="M 188 3500 
L 3541 3500 
L 3541 3041 
L 2147 3041 
L 2147 0 
L 1581 0 
L 1581 3041 
L 188 3041 
L 188 3500 
z
" transform="scale(0.015625)"/>
      <path id="DejaVuSans-438" d="M 3578 3500 
L 3578 0 
L 3006 0 
L 3006 2809 
L 1319 0 
L 581 0 
L 581 3500 
L 1153 3500 
L 1153 697 
L 2838 3500 
L 3578 3500 
z
" transform="scale(0.015625)"/>
      <path id="DejaVuSans-43a" d="M 581 3500 
L 1153 3500 
L 1153 1856 
L 2775 3500 
L 3481 3500 
L 2144 2147 
L 3653 0 
L 3009 0 
L 1769 1766 
L 1153 1141 
L 1153 0 
L 581 0 
L 581 3500 
z
" transform="scale(0.015625)"/>
     </defs>
     <use xlink:href="#DejaVuSans-418"/>
     <use xlink:href="#DejaVuSans-43d" x="74.804688"/>
     <use xlink:href="#DejaVuSans-444" x="140.185547"/>
     <use xlink:href="#DejaVuSans-43e" x="225.683594"/>
     <use xlink:href="#DejaVuSans-440" x="286.865234"/>
     <use xlink:href="#DejaVuSans-43c" x="350.341797"/>
     <use xlink:href="#DejaVuSans-430" x="425.78125"/>
     <use xlink:href="#DejaVuSans-442" x="487.060547"/>
     <use xlink:href="#DejaVuSans-438" x="545.3125"/>
     <use xlink:href="#DejaVuSans-43a" x="610.302734"/>
     <use xlink:href="#DejaVuSans-430" x="670.703125"/>
    </g>
   </g>
   <g id="text_2">
    <!-- Математика -->
    <g transform="translate(301.161797 200.431022) scale(0.1 -0.1)">
     <defs>
      <path id="DejaVuSans-41c" d="M 628 4666 
L 1569 4666 
L 2759 1491 
L 3956 4666 
L 4897 4666 
L 4897 0 
L 4281 0 
L 4281 4097 
L 3078 897 
L 2444 897 
L 1241 4097 
L 1241 0 
L 628 0 
L 628 4666 
z
" transform="scale(0.015625)"/>
      <path id="DejaVuSans-435" d="M 3597 1894 
L 3597 1613 
L 953 1613 
Q 991 1019 1311 708 
Q 1631 397 2203 397 
Q 2534 397 2845 478 
Q 3156 559 3463 722 
L 3463 178 
Q 3153 47 2828 -22 
Q 2503 -91 2169 -91 
Q 1331 -91 842 396 
Q 353 884 353 1716 
Q 353 2575 817 3079 
Q 1281 3584 2069 3584 
Q 2775 3584 3186 3129 
Q 3597 2675 3597 1894 
z
M 3022 2063 
Q 3016 2534 2758 2815 
Q 2500 3097 2075 3097 
Q 1594 3097 1305 2825 
Q 1016 2553 972 2059 
L 3022 2063 
z
" transform="scale(0.015625)"/>
     </defs>
     <use xlink:href="#DejaVuSans-41c"/>
     <use xlink:href="#DejaVuSans-430" x="86.279297"/>
     <use xlink:href="#DejaVuSans-442" x="147.558594"/>
     <use xlink:href="#DejaVuSans-435" x="205.810547"/>
     <use xlink:href="#DejaVuSans-43c" x="267.333984"/>
     <use xlink:href="#DejaVuSans-430" x="342.773438"/>
     <use xlink:href="#DejaVuSans-442" x="404.052734"/>
     <use xlink:href="#DejaVuSans-438" x="462.304688"/>
     <use xlink:href="#DejaVuSans-43a" x="527.294922"/>
     <use xlink:href="#DejaVuSans-430" x="587.695312"/>
    </g>
   </g>
   <g id="text_3">
    <!-- Астрономија и астрофизика -->
    <g transform="translate(308.846494 165.341616) scale(0.1 -0.1)">
     <defs>
      <path id="DejaVuSans-410" d="M 2188 4044 
L 1331 1722 
L 3047 1722 
L 2188 4044 
z
M 1831 4666 
L 2547 4666 
L 4325 0 
L 3669 0 
L 3244 1197 
L 1141 1197 
L 716 0 
L 50 0 
L 1831 4666 
z
" transform="scale(0.015625)"/>
      <path id="DejaVuSans-441" d="M 3122 3366 
L 3122 2828 
Q 2878 2963 2633 3030 
Q 2388 3097 2138 3097 
Q 1578 3097 1268 2742 
Q 959 2388 959 1747 
Q 959 1106 1268 751 
Q 1578 397 2138 397 
Q 2388 397 2633 464 
Q 2878 531 3122 666 
L 3122 134 
Q 2881 22 2623 -34 
Q 2366 -91 2075 -91 
Q 1284 -91 818 406 
Q 353 903 353 1747 
Q 353 2603 823 3093 
Q 1294 3584 2113 3584 
Q 2378 3584 2631 3529 
Q 2884 3475 3122 3366 
z
" transform="scale(0.015625)"/>
      <path id="DejaVuSans-458" d="M 603 3500 
L 1178 3500 
L 1178 -63 
Q 1178 -731 923 -1031 
Q 669 -1331 103 -1331 
L -116 -1331 
L -116 -844 
L 38 -844 
Q 366 -844 484 -692 
Q 603 -541 603 -63 
L 603 3500 
z
M 603 4863 
L 1178 4863 
L 1178 4134 
L 603 4134 
L 603 4863 
z
" transform="scale(0.015625)"/>
      <path id="DejaVuSans-20" transform="scale(0.015625)"/>
      <path id="DejaVuSans-437" d="M 2206 1888 
Q 2594 1813 2809 1584 
Q 3025 1356 3025 1019 
Q 3025 478 2622 193 
Q 2219 -91 1475 -91 
Q 1225 -91 961 -47 
Q 697 -3 416 84 
L 416 619 
Q 638 503 903 445 
Q 1169 388 1459 388 
Q 1931 388 2195 563 
Q 2459 738 2459 1019 
Q 2459 1294 2225 1461 
Q 1991 1628 1563 1628 
L 1100 1628 
L 1100 2103 
L 1584 2103 
Q 1947 2103 2158 2242 
Q 2369 2381 2369 2600 
Q 2369 2800 2151 2944 
Q 1934 3088 1563 3088 
Q 1341 3088 1089 3047 
Q 838 3006 534 2916 
L 534 3438 
Q 841 3513 1106 3550 
Q 1372 3588 1609 3588 
Q 2222 3588 2576 3342 
Q 2931 3097 2931 2656 
Q 2931 2366 2743 2164 
Q 2556 1963 2206 1888 
z
" transform="scale(0.015625)"/>
     </defs>
     <use xlink:href="#DejaVuSans-410"/>
     <use xlink:href="#DejaVuSans-441" x="68.408203"/>
     <use xlink:href="#DejaVuSans-442" x="123.388672"/>
     <use xlink:href="#DejaVuSans-440" x="181.640625"/>
     <use xlink:href="#DejaVuSans-43e" x="245.117188"/>
     <use xlink:href="#DejaVuSans-43d" x="306.298828"/>
     <use xlink:href="#DejaVuSans-43e" x="371.679688"/>
     <use xlink:href="#DejaVuSans-43c" x="432.861328"/>
     <use xlink:href="#DejaVuSans-438" x="508.300781"/>
     <use xlink:href="#DejaVuSans-458" x="573.291016"/>
     <use xlink:href="#DejaVuSans-430" x="601.074219"/>
     <use xlink:href="#DejaVuSans-20" x="662.353516"/>
     <use xlink:href="#DejaVuSans-438" x="694.140625"/>
     <use xlink:href="#DejaVuSans-20" x="759.130859"/>
     <use xlink:href="#DejaVuSans-430" x="790.917969"/>
     <use xlink:href="#DejaVuSans-441" x="852.197266"/>
     <use xlink:href="#DejaVuSans-442" x="907.177734"/>
     <use xlink:href="#DejaVuSans-440" x="965.429688"/>
     <use xlink:href="#DejaVuSans-43e" x="1028.90625"/>
     <use xlink:href="#DejaVuSans-444" x="1090.087891"/>
     <use xlink:href="#DejaVuSans-438" x="1175.585938"/>
     <use xlink:href="#DejaVuSans-437" x="1240.576172"/>
     <use xlink:href="#DejaVuSans-438" x="1293.75"/>
     <use xlink:href="#DejaVuSans-43a" x="1358.740234"/>
     <use xlink:href="#DejaVuSans-430" x="1419.140625"/>
    </g>
   </g>
   <g id="text_4">
    <!-- Смер -->
    <g transform="translate(175.762418 16.318125) scale(0.12 -0.12)">
     <defs>
      <path id="DejaVuSans-421" d="M 4122 4306 
L 4122 3641 
Q 3803 3938 3442 4084 
Q 3081 4231 2675 4231 
Q 1875 4231 1450 3742 
Q 1025 3253 1025 2328 
Q 1025 1406 1450 917 
Q 1875 428 2675 428 
Q 3081 428 3442 575 
Q 3803 722 4122 1019 
L 4122 359 
Q 3791 134 3420 21 
Q 3050 -91 2638 -91 
Q 1578 -91 968 557 
Q 359 1206 359 2328 
Q 359 3453 968 4101 
Q 1578 4750 2638 4750 
Q 3056 4750 3426 4639 
Q 3797 4528 4122 4306 
z
" transform="scale(0.015625)"/>
     </defs>
     <use xlink:href="#DejaVuSans-421"/>
     <use xlink:href="#DejaVuSans-43c" x="69.824219"/>
     <use xlink:href="#DejaVuSans-435" x="145.263672"/>
     <use xlink:href="#DejaVuSans-440" x="206.787109"/>
    </g>
   </g>
  </g>
 </g>
</svg>
